<svg id="Calque_1" data-name="Calque 1" xmlns="http://www.w3.org/2000/svg" viewBox="0 0 987 70"><defs><style>.cls-1{fill:#9fb5a8;}.cls-2{fill:#2bd37a;}</style></defs><path class="cls-1" d="M0,61.77V13.91a1.58,1.58,0,0,1,.48-1.15A1.54,1.54,0,0,1,1,12.41a1.68,1.68,0,0,1,.62-.13H5.68a1.69,1.69,0,0,1,1.15.48,1.62,1.62,0,0,1,.47,1.15V61.77a1.63,1.63,0,0,1-.12.62,1.58,1.58,0,0,1-.35.53,1.69,1.69,0,0,1-1.15.48H1.62A1.68,1.68,0,0,1,1,63.27a1.54,1.54,0,0,1-.52-.35,1.61,1.61,0,0,1-.36-.53A1.63,1.63,0,0,1,0,61.77"/><path class="cls-1" d="M12.17,61.77V9.85a1.63,1.63,0,0,1,.12-.62,1.58,1.58,0,0,1,.88-.88,1.67,1.67,0,0,1,.62-.12h4.87a1.67,1.67,0,0,1,.62.12,1.58,1.58,0,0,1,.88.88,1.63,1.63,0,0,1,.12.62V61.77a1.63,1.63,0,0,1-.12.62,1.58,1.58,0,0,1-.35.53,1.69,1.69,0,0,1-1.15.48H13.79a1.69,1.69,0,0,1-1.15-.48,1.58,1.58,0,0,1-.35-.53,1.63,1.63,0,0,1-.12-.62"/><path class="cls-1" d="M25.15,61.77V29.32a1.67,1.67,0,0,1,.12-.62,1.88,1.88,0,0,1,.35-.53,1.69,1.69,0,0,1,.53-.35,1.67,1.67,0,0,1,.62-.12h4.06a1.67,1.67,0,0,1,.62.12,1.58,1.58,0,0,1,.88.88,1.67,1.67,0,0,1,.12.62V61.77a1.63,1.63,0,0,1-.12.62,1.58,1.58,0,0,1-.35.53,1.69,1.69,0,0,1-1.15.48H26.77a1.69,1.69,0,0,1-1.15-.48,1.75,1.75,0,0,1-.35-.53,1.63,1.63,0,0,1-.12-.62"/><path class="cls-2" d="M37.32,61.77V27.7a1.63,1.63,0,0,1,.12-.62,1.58,1.58,0,0,1,.35-.53,1.69,1.69,0,0,1,.53-.35,1.67,1.67,0,0,1,.62-.12H43a1.67,1.67,0,0,1,.62.12,1.69,1.69,0,0,1,.53.35,1.75,1.75,0,0,1,.35.53,1.63,1.63,0,0,1,.12.62V61.77a1.63,1.63,0,0,1-.12.62,1.75,1.75,0,0,1-.35.53A1.69,1.69,0,0,1,43,63.4H38.94a1.69,1.69,0,0,1-1.15-.48,1.58,1.58,0,0,1-.35-.53,1.63,1.63,0,0,1-.12-.62"/><path class="cls-1" d="M49.49,61.77V22.83a1.67,1.67,0,0,1,.12-.62,1.58,1.58,0,0,1,.88-.88,1.67,1.67,0,0,1,.62-.12h4.06a1.67,1.67,0,0,1,.62.12,1.54,1.54,0,0,1,.52.35,1.72,1.72,0,0,1,.36.53,1.67,1.67,0,0,1,.12.62V61.77a1.63,1.63,0,0,1-.12.62,1.61,1.61,0,0,1-.36.53,1.54,1.54,0,0,1-.52.35,1.68,1.68,0,0,1-.62.13H51.11A1.69,1.69,0,0,1,50,62.92a1.58,1.58,0,0,1-.35-.53,1.63,1.63,0,0,1-.12-.62"/><path class="cls-1" d="M61.66,61.77V22a1.63,1.63,0,0,1,.12-.62,1.58,1.58,0,0,1,.88-.88,1.63,1.63,0,0,1,.62-.12h4.87a1.67,1.67,0,0,1,.62.12,1.54,1.54,0,0,1,.52.35,1.61,1.61,0,0,1,.36.53,1.63,1.63,0,0,1,.12.62V61.77a1.63,1.63,0,0,1-.12.62,1.61,1.61,0,0,1-.36.53,1.54,1.54,0,0,1-.52.35,1.68,1.68,0,0,1-.62.13H63.28a1.64,1.64,0,0,1-.62-.13,1.58,1.58,0,0,1-.88-.88,1.63,1.63,0,0,1-.12-.62"/><path class="cls-1" d="M74.64,61.77V20.4a1.62,1.62,0,0,1,.47-1.15,1.69,1.69,0,0,1,1.15-.48h4.06a1.68,1.68,0,0,1,.62.13,1.54,1.54,0,0,1,.52.35,1.58,1.58,0,0,1,.48,1.15V61.77a1.63,1.63,0,0,1-.12.62,1.61,1.61,0,0,1-.36.53,1.54,1.54,0,0,1-.52.35,1.68,1.68,0,0,1-.62.13H76.26a1.69,1.69,0,0,1-1.15-.48,1.58,1.58,0,0,1-.35-.53,1.63,1.63,0,0,1-.12-.62"/><path class="cls-1" d="M86.81,61.77V8.23a1.63,1.63,0,0,1,.12-.62,1.58,1.58,0,0,1,.88-.88,1.64,1.64,0,0,1,.62-.13h4.06a1.68,1.68,0,0,1,.62.13,1.54,1.54,0,0,1,.52.35,1.44,1.44,0,0,1,.35.53,1.47,1.47,0,0,1,.13.62V61.77a1.47,1.47,0,0,1-.13.62,1.44,1.44,0,0,1-.35.53,1.54,1.54,0,0,1-.52.35,1.68,1.68,0,0,1-.62.13H88.43a1.64,1.64,0,0,1-.62-.13,1.58,1.58,0,0,1-.88-.88,1.63,1.63,0,0,1-.12-.62"/><path class="cls-2" d="M99,61.77V48a1.63,1.63,0,0,1,.12-.62,1.69,1.69,0,0,1,.35-.53,1.58,1.58,0,0,1,.53-.35,1.63,1.63,0,0,1,.62-.12h4.87a1.67,1.67,0,0,1,.62.12,1.54,1.54,0,0,1,.52.35,1.72,1.72,0,0,1,.36.53,1.63,1.63,0,0,1,.12.62V61.77a1.63,1.63,0,0,1-.12.62,1.61,1.61,0,0,1-.36.53,1.54,1.54,0,0,1-.52.35,1.68,1.68,0,0,1-.62.13H100.6a1.64,1.64,0,0,1-.62-.13,1.58,1.58,0,0,1-.88-.88,1.63,1.63,0,0,1-.12-.62"/><path class="cls-1" d="M112,61.77V24.45a1.67,1.67,0,0,1,.12-.62,1.54,1.54,0,0,1,.35-.52A1.61,1.61,0,0,1,113,23a1.63,1.63,0,0,1,.62-.12h4.06a1.54,1.54,0,0,1,1.14.48,1.54,1.54,0,0,1,.35.52,1.5,1.5,0,0,1,.13.62V61.77a1.47,1.47,0,0,1-.13.62,1.58,1.58,0,0,1-.35.53,1.64,1.64,0,0,1-.52.35,1.68,1.68,0,0,1-.62.13h-4.06a1.64,1.64,0,0,1-.62-.13,1.58,1.58,0,0,1-.88-.88,1.63,1.63,0,0,1-.12-.62"/><path class="cls-1" d="M124.13,61.77v-13a1.67,1.67,0,0,1,.12-.62,1.69,1.69,0,0,1,.35-.53,1.58,1.58,0,0,1,.53-.35,1.63,1.63,0,0,1,.62-.12h4.05a1.68,1.68,0,0,1,.63.12,1.64,1.64,0,0,1,.52.35,1.69,1.69,0,0,1,.35.53,1.5,1.5,0,0,1,.13.62v13a1.47,1.47,0,0,1-.13.62,1.58,1.58,0,0,1-.35.53,1.64,1.64,0,0,1-.52.35,1.69,1.69,0,0,1-.63.13h-4.05a1.64,1.64,0,0,1-.62-.13,1.58,1.58,0,0,1-.88-.88,1.63,1.63,0,0,1-.12-.62"/><path class="cls-1" d="M136.29,61.77V41.49a1.64,1.64,0,0,1,.13-.62,1.69,1.69,0,0,1,.35-.53,1.58,1.58,0,0,1,.53-.35,1.63,1.63,0,0,1,.62-.12H142a1.62,1.62,0,0,1,1.15.47,1.69,1.69,0,0,1,.35.53,1.47,1.47,0,0,1,.13.62V61.77a1.47,1.47,0,0,1-.13.62,1.58,1.58,0,0,1-.88.88,1.6,1.6,0,0,1-.62.13h-4.05a1.64,1.64,0,0,1-.62-.13,1.58,1.58,0,0,1-.88-.88,1.64,1.64,0,0,1-.13-.62"/><path class="cls-2" d="M148.46,61.77V24.45a1.68,1.68,0,0,1,.13-.62,1.54,1.54,0,0,1,.35-.52,1.58,1.58,0,0,1,1.15-.48H155a1.54,1.54,0,0,1,1.15.48,1.54,1.54,0,0,1,.35.52,1.5,1.5,0,0,1,.13.62V61.77a1.47,1.47,0,0,1-.13.62,1.58,1.58,0,0,1-.35.53,1.64,1.64,0,0,1-.52.35,1.69,1.69,0,0,1-.63.13h-4.86a1.6,1.6,0,0,1-.62-.13,1.58,1.58,0,0,1-.88-.88,1.64,1.64,0,0,1-.13-.62"/><path class="cls-1" d="M161.44,61.77V30.13a1.69,1.69,0,0,1,.48-1.15,1.75,1.75,0,0,1,.53-.35,1.63,1.63,0,0,1,.62-.12h4.05a1.59,1.59,0,0,1,.62.12,1.75,1.75,0,0,1,.53.35,1.69,1.69,0,0,1,.48,1.15V61.77a1.64,1.64,0,0,1-.13.62,1.58,1.58,0,0,1-.88.88,1.6,1.6,0,0,1-.62.13h-4.05a1.64,1.64,0,0,1-.62-.13,1.58,1.58,0,0,1-.88-.88,1.64,1.64,0,0,1-.13-.62"/><path class="cls-1" d="M173.61,61.77v-26a1.69,1.69,0,0,1,.48-1.15,1.62,1.62,0,0,1,1.15-.47h4a1.63,1.63,0,0,1,.62.12,1.58,1.58,0,0,1,.53.35,1.69,1.69,0,0,1,.48,1.15v26a1.64,1.64,0,0,1-.13.62,1.58,1.58,0,0,1-.88.88,1.64,1.64,0,0,1-.62.13h-4a1.6,1.6,0,0,1-.62-.13,1.58,1.58,0,0,1-.88-.88,1.64,1.64,0,0,1-.13-.62"/><path class="cls-1" d="M185.78,61.77V50.41a1.5,1.5,0,0,1,.13-.62,1.54,1.54,0,0,1,.35-.52,1.64,1.64,0,0,1,.52-.35,1.51,1.51,0,0,1,.63-.13h4.86a1.44,1.44,0,0,1,.62.13,1.58,1.58,0,0,1,.53.35,1.54,1.54,0,0,1,.35.52,1.68,1.68,0,0,1,.13.62V61.77a1.64,1.64,0,0,1-.13.62,1.58,1.58,0,0,1-.88.88,1.6,1.6,0,0,1-.62.13h-4.86a1.69,1.69,0,0,1-.63-.13,1.64,1.64,0,0,1-.52-.35,1.58,1.58,0,0,1-.35-.53,1.47,1.47,0,0,1-.13-.62"/><path class="cls-2" d="M198.76,61.77V33.38a1.47,1.47,0,0,1,.13-.62,1.61,1.61,0,0,1,1.5-1h4.05a1.63,1.63,0,0,1,.62.12,1.58,1.58,0,0,1,.88.88,1.63,1.63,0,0,1,.12.62V61.77a1.63,1.63,0,0,1-.12.62,1.58,1.58,0,0,1-.88.88,1.64,1.64,0,0,1-.62.13h-4.05a1.6,1.6,0,0,1-.62-.13,1.58,1.58,0,0,1-.88-.88,1.47,1.47,0,0,1-.13-.62"/><path class="cls-1" d="M210.93,61.77V13.91a1.44,1.44,0,0,1,.13-.62,1.58,1.58,0,0,1,.35-.53,1.64,1.64,0,0,1,.52-.35,1.69,1.69,0,0,1,.63-.13h4.05a1.64,1.64,0,0,1,.62.13,1.61,1.61,0,0,1,1,1.5V61.77a1.63,1.63,0,0,1-.12.62,1.58,1.58,0,0,1-.88.88,1.64,1.64,0,0,1-.62.13h-4.05a1.69,1.69,0,0,1-.63-.13,1.64,1.64,0,0,1-.52-.35,1.58,1.58,0,0,1-.35-.53,1.47,1.47,0,0,1-.13-.62"/><path class="cls-1" d="M223.1,61.77V39.87a1.69,1.69,0,0,1,.48-1.15,1.54,1.54,0,0,1,.52-.35,1.68,1.68,0,0,1,.62-.13h4.06a1.64,1.64,0,0,1,.62.13,1.61,1.61,0,0,1,1,1.5v21.9a1.63,1.63,0,0,1-.12.62,1.58,1.58,0,0,1-.88.88,1.64,1.64,0,0,1-.62.13h-4.06a1.68,1.68,0,0,1-.62-.13,1.54,1.54,0,0,1-.52-.35,1.44,1.44,0,0,1-.35-.53,1.47,1.47,0,0,1-.13-.62"/><path class="cls-2" d="M235.27,61.77V43.11a1.67,1.67,0,0,1,.12-.62,1.77,1.77,0,0,1,.88-.88,1.67,1.67,0,0,1,.62-.12h4.87a1.63,1.63,0,0,1,.62.12,1.61,1.61,0,0,1,.53.36,1.54,1.54,0,0,1,.35.52,1.67,1.67,0,0,1,.12.62V61.77a1.63,1.63,0,0,1-.12.62,1.58,1.58,0,0,1-.88.88,1.64,1.64,0,0,1-.62.13h-4.87a1.68,1.68,0,0,1-.62-.13,1.54,1.54,0,0,1-.52-.35,1.61,1.61,0,0,1-.36-.53,1.63,1.63,0,0,1-.12-.62"/><path class="cls-1" d="M248.25,61.77V9a1.63,1.63,0,0,1,.12-.62,1.61,1.61,0,0,1,.36-.53,1.54,1.54,0,0,1,.52-.35,1.67,1.67,0,0,1,.62-.12h4.06a1.63,1.63,0,0,1,.62.12,1.58,1.58,0,0,1,.88.88,1.63,1.63,0,0,1,.12.62V61.77a1.63,1.63,0,0,1-.12.62,1.58,1.58,0,0,1-.88.88,1.64,1.64,0,0,1-.62.13h-4.06a1.68,1.68,0,0,1-.62-.13,1.54,1.54,0,0,1-.52-.35,1.61,1.61,0,0,1-.36-.53,1.63,1.63,0,0,1-.12-.62"/><path class="cls-1" d="M260.42,61.77V24.45a1.67,1.67,0,0,1,.12-.62,1.77,1.77,0,0,1,.88-.88,1.67,1.67,0,0,1,.62-.12h4.06a1.67,1.67,0,0,1,.62.12,1.72,1.72,0,0,1,.53.36,1.54,1.54,0,0,1,.35.52,1.67,1.67,0,0,1,.12.62V61.77a1.63,1.63,0,0,1-.12.62,1.58,1.58,0,0,1-.35.53,1.69,1.69,0,0,1-1.15.48H262a1.68,1.68,0,0,1-.62-.13,1.54,1.54,0,0,1-.52-.35,1.61,1.61,0,0,1-.36-.53,1.63,1.63,0,0,1-.12-.62"/><path class="cls-1" d="M272.59,61.77V41.49a1.63,1.63,0,0,1,.12-.62,1.72,1.72,0,0,1,.36-.53,1.54,1.54,0,0,1,.52-.35,1.67,1.67,0,0,1,.62-.12h4.06a1.67,1.67,0,0,1,.62.12,1.58,1.58,0,0,1,.88.88,1.63,1.63,0,0,1,.12.62V61.77a1.63,1.63,0,0,1-.12.62,1.58,1.58,0,0,1-.35.53,1.69,1.69,0,0,1-1.15.48h-4.06a1.68,1.68,0,0,1-.62-.13,1.54,1.54,0,0,1-.52-.35,1.61,1.61,0,0,1-.36-.53,1.63,1.63,0,0,1-.12-.62"/><path class="cls-2" d="M284.76,61.77V52.85a1.63,1.63,0,0,1,.12-.62,1.58,1.58,0,0,1,.35-.53,1.69,1.69,0,0,1,.53-.35,1.67,1.67,0,0,1,.62-.12h4.87a1.67,1.67,0,0,1,.62.12,1.69,1.69,0,0,1,.53.35,1.58,1.58,0,0,1,.35.53,1.63,1.63,0,0,1,.12.62v8.92a1.63,1.63,0,0,1-.12.62,1.58,1.58,0,0,1-.35.53,1.69,1.69,0,0,1-1.15.48h-4.87a1.69,1.69,0,0,1-1.15-.48,1.58,1.58,0,0,1-.35-.53,1.63,1.63,0,0,1-.12-.62"/><path class="cls-1" d="M297.74,61.77V36.62a1.67,1.67,0,0,1,.12-.62,1.7,1.7,0,0,1,.35-.52,1.72,1.72,0,0,1,.53-.36,1.67,1.67,0,0,1,.62-.12h4.06a1.67,1.67,0,0,1,.62.12,1.72,1.72,0,0,1,.53.36,1.54,1.54,0,0,1,.35.52,1.67,1.67,0,0,1,.12.62V61.77a1.63,1.63,0,0,1-.12.62,1.58,1.58,0,0,1-.35.53,1.69,1.69,0,0,1-1.15.48h-4.06a1.69,1.69,0,0,1-1.15-.48,1.75,1.75,0,0,1-.35-.53,1.63,1.63,0,0,1-.12-.62"/><path class="cls-1" d="M309.91,61.77V13.91a1.62,1.62,0,0,1,.47-1.15,1.69,1.69,0,0,1,1.15-.48h4.06a1.69,1.69,0,0,1,1.15.48,1.75,1.75,0,0,1,.35.53,1.59,1.59,0,0,1,.12.62V61.77a1.63,1.63,0,0,1-.12.62,1.75,1.75,0,0,1-.35.53,1.69,1.69,0,0,1-1.15.48h-4.06a1.69,1.69,0,0,1-1.15-.48,1.58,1.58,0,0,1-.35-.53,1.63,1.63,0,0,1-.12-.62"/><path class="cls-1" d="M322.08,61.77V32.57a1.68,1.68,0,0,1,.12-.63,1.64,1.64,0,0,1,.35-.52,1.69,1.69,0,0,1,.53-.35,1.5,1.5,0,0,1,.62-.13h4.87a1.5,1.5,0,0,1,.62.13,1.69,1.69,0,0,1,.53.35,1.83,1.83,0,0,1,.35.52,1.68,1.68,0,0,1,.12.63v29.2a1.63,1.63,0,0,1-.12.62,1.75,1.75,0,0,1-.35.53,1.69,1.69,0,0,1-1.15.48H323.7a1.69,1.69,0,0,1-1.15-.48,1.58,1.58,0,0,1-.35-.53,1.63,1.63,0,0,1-.12-.62"/><path class="cls-1" d="M335.06,61.77V10.66a1.67,1.67,0,0,1,.12-.62,1.69,1.69,0,0,1,.35-.53,1.88,1.88,0,0,1,.53-.35,1.67,1.67,0,0,1,.62-.12h4.06a1.67,1.67,0,0,1,.62.12,1.7,1.7,0,0,1,.52.35,1.72,1.72,0,0,1,.36.53,1.67,1.67,0,0,1,.12.62V61.77a1.63,1.63,0,0,1-.12.62,1.61,1.61,0,0,1-.36.53,1.54,1.54,0,0,1-.52.35,1.68,1.68,0,0,1-.62.13h-4.06a1.69,1.69,0,0,1-1.15-.48,1.58,1.58,0,0,1-.35-.53,1.63,1.63,0,0,1-.12-.62"/><path class="cls-1" d="M347.23,61.77V40.68a1.63,1.63,0,0,1,.12-.62,1.58,1.58,0,0,1,.88-.88,1.63,1.63,0,0,1,.62-.12h4.06a1.67,1.67,0,0,1,.62.12,1.54,1.54,0,0,1,.52.35,1.61,1.61,0,0,1,.36.53,1.63,1.63,0,0,1,.12.62V61.77a1.63,1.63,0,0,1-.12.62,1.61,1.61,0,0,1-.36.53,1.54,1.54,0,0,1-.52.35,1.68,1.68,0,0,1-.62.13h-4.06a1.64,1.64,0,0,1-.62-.13,1.58,1.58,0,0,1-.88-.88,1.63,1.63,0,0,1-.12-.62"/><path class="cls-1" d="M359.4,61.77V29.32a1.67,1.67,0,0,1,.12-.62,1.69,1.69,0,0,1,.35-.53,1.58,1.58,0,0,1,.53-.35,1.63,1.63,0,0,1,.62-.12h4.06a1.67,1.67,0,0,1,.62.12,1.61,1.61,0,0,1,.87.88,1.5,1.5,0,0,1,.13.62V61.77a1.47,1.47,0,0,1-.13.62,1.44,1.44,0,0,1-.35.53,1.54,1.54,0,0,1-.52.35,1.68,1.68,0,0,1-.62.13H361a1.64,1.64,0,0,1-.62-.13,1.58,1.58,0,0,1-.88-.88,1.63,1.63,0,0,1-.12-.62"/><path class="cls-1" d="M371.57,61.77V29.32a1.67,1.67,0,0,1,.12-.62,1.69,1.69,0,0,1,.35-.53,1.58,1.58,0,0,1,.53-.35,1.63,1.63,0,0,1,.62-.12h4.87a1.67,1.67,0,0,1,.62.12,1.54,1.54,0,0,1,.52.35,1.72,1.72,0,0,1,.36.53,1.67,1.67,0,0,1,.12.62V61.77a1.63,1.63,0,0,1-.12.62,1.61,1.61,0,0,1-.36.53,1.54,1.54,0,0,1-.52.35,1.68,1.68,0,0,1-.62.13h-4.87a1.64,1.64,0,0,1-.62-.13,1.58,1.58,0,0,1-.88-.88,1.63,1.63,0,0,1-.12-.62"/><path class="cls-1" d="M384.55,61.77V9a1.63,1.63,0,0,1,.12-.62,1.58,1.58,0,0,1,.88-.88,1.63,1.63,0,0,1,.62-.12h4.06a1.67,1.67,0,0,1,.62.12,1.64,1.64,0,0,1,.52.35,1.58,1.58,0,0,1,.35.53,1.47,1.47,0,0,1,.13.62V61.77a1.47,1.47,0,0,1-.13.62,1.58,1.58,0,0,1-.35.53,1.64,1.64,0,0,1-.52.35,1.68,1.68,0,0,1-.62.13h-4.06a1.64,1.64,0,0,1-.62-.13,1.58,1.58,0,0,1-.88-.88,1.63,1.63,0,0,1-.12-.62"/><path class="cls-1" d="M396.72,61.77V26.08a1.68,1.68,0,0,1,.12-.63,1.64,1.64,0,0,1,.35-.52,1.58,1.58,0,0,1,.53-.35,1.47,1.47,0,0,1,.62-.13h4.05a1.51,1.51,0,0,1,.63.13,1.63,1.63,0,0,1,.87.87,1.51,1.51,0,0,1,.13.63V61.77a1.47,1.47,0,0,1-.13.62,1.58,1.58,0,0,1-.35.53,1.64,1.64,0,0,1-.52.35,1.69,1.69,0,0,1-.63.13h-4.05a1.64,1.64,0,0,1-.62-.13,1.58,1.58,0,0,1-.88-.88,1.63,1.63,0,0,1-.12-.62"/><path class="cls-1" d="M408.88,61.77V26.08a1.69,1.69,0,0,1,.13-.63,1.64,1.64,0,0,1,.35-.52,1.58,1.58,0,0,1,.53-.35,1.47,1.47,0,0,1,.62-.13h4.87a1.5,1.5,0,0,1,.62.13,1.63,1.63,0,0,1,.87.87,1.51,1.51,0,0,1,.13.63V61.77a1.47,1.47,0,0,1-.13.62,1.58,1.58,0,0,1-.35.53,1.64,1.64,0,0,1-.52.35,1.68,1.68,0,0,1-.62.13h-4.87a1.64,1.64,0,0,1-.62-.13,1.58,1.58,0,0,1-.88-.88,1.64,1.64,0,0,1-.13-.62"/><path class="cls-1" d="M421.87,61.77V47.17a1.63,1.63,0,0,1,.12-.62,1.58,1.58,0,0,1,.88-.88,1.63,1.63,0,0,1,.62-.12h4.05a1.68,1.68,0,0,1,.63.12,1.64,1.64,0,0,1,.52.35,1.58,1.58,0,0,1,.35.53,1.47,1.47,0,0,1,.13.62v14.6a1.47,1.47,0,0,1-.13.62,1.58,1.58,0,0,1-.35.53,1.64,1.64,0,0,1-.52.35,1.69,1.69,0,0,1-.63.13h-4.05a1.64,1.64,0,0,1-.62-.13,1.58,1.58,0,0,1-.88-.88,1.63,1.63,0,0,1-.12-.62"/><path class="cls-2" d="M434,61.77V55.28a1.69,1.69,0,0,1,.48-1.15,1.75,1.75,0,0,1,.53-.35,1.63,1.63,0,0,1,.62-.12h4a1.59,1.59,0,0,1,.62.12,1.75,1.75,0,0,1,.53.35,1.69,1.69,0,0,1,.48,1.15v6.49a1.64,1.64,0,0,1-.13.62,1.58,1.58,0,0,1-.88.88,1.6,1.6,0,0,1-.62.13h-4a1.64,1.64,0,0,1-.62-.13,1.58,1.58,0,0,1-.88-.88,1.64,1.64,0,0,1-.13-.62"/><path class="cls-1" d="M446.2,61.77V34.19a1.47,1.47,0,0,1,.13-.62,1.61,1.61,0,0,1,1.5-1h4.05a1.63,1.63,0,0,1,.62.12,1.58,1.58,0,0,1,.88.88,1.64,1.64,0,0,1,.13.62V61.77a1.64,1.64,0,0,1-.13.62,1.58,1.58,0,0,1-.88.88,1.64,1.64,0,0,1-.62.13h-4.05a1.6,1.6,0,0,1-.62-.13,1.58,1.58,0,0,1-.88-.88,1.47,1.47,0,0,1-.13-.62"/><path class="cls-1" d="M458.37,61.77V43.11a1.5,1.5,0,0,1,.13-.62,1.54,1.54,0,0,1,.35-.52,1.54,1.54,0,0,1,1.15-.48h4.86A1.58,1.58,0,0,1,466,42a1.54,1.54,0,0,1,.35.52,1.68,1.68,0,0,1,.13.62V61.77a1.64,1.64,0,0,1-.13.62,1.58,1.58,0,0,1-.88.88,1.6,1.6,0,0,1-.62.13H460a1.69,1.69,0,0,1-.63-.13,1.64,1.64,0,0,1-.52-.35,1.58,1.58,0,0,1-.35-.53,1.47,1.47,0,0,1-.13-.62"/><path class="cls-1" d="M471.35,61.77V53.66a1.47,1.47,0,0,1,.13-.62,1.58,1.58,0,0,1,.35-.53,1.64,1.64,0,0,1,.52-.35A1.68,1.68,0,0,1,473,52h4a1.63,1.63,0,0,1,.62.12,1.58,1.58,0,0,1,.88.88,1.63,1.63,0,0,1,.12.62v8.11a1.63,1.63,0,0,1-.12.62,1.58,1.58,0,0,1-.88.88,1.64,1.64,0,0,1-.62.13h-4a1.69,1.69,0,0,1-.63-.13,1.64,1.64,0,0,1-.52-.35,1.58,1.58,0,0,1-.35-.53,1.47,1.47,0,0,1-.13-.62"/><path class="cls-1" d="M483.52,61.77V37.43a1.5,1.5,0,0,1,.13-.62,1.54,1.54,0,0,1,.35-.52,1.54,1.54,0,0,1,1.15-.48h4.05a1.63,1.63,0,0,1,.62.12,1.61,1.61,0,0,1,.53.36,1.54,1.54,0,0,1,.35.52,1.67,1.67,0,0,1,.12.62V61.77a1.63,1.63,0,0,1-.12.62,1.58,1.58,0,0,1-.88.88,1.64,1.64,0,0,1-.62.13h-4.05a1.69,1.69,0,0,1-.63-.13,1.64,1.64,0,0,1-.52-.35,1.58,1.58,0,0,1-.35-.53,1.47,1.47,0,0,1-.13-.62"/><path class="cls-1" d="M495.69,61.77V28.51a1.47,1.47,0,0,1,.13-.62,1.44,1.44,0,0,1,.35-.53,1.54,1.54,0,0,1,.52-.35,1.67,1.67,0,0,1,.62-.12h4.87a1.63,1.63,0,0,1,.62.12,1.58,1.58,0,0,1,.88.88,1.63,1.63,0,0,1,.12.62V61.77a1.63,1.63,0,0,1-.12.62,1.58,1.58,0,0,1-.88.88,1.64,1.64,0,0,1-.62.13h-4.87a1.68,1.68,0,0,1-.62-.13,1.54,1.54,0,0,1-.52-.35,1.44,1.44,0,0,1-.35-.53,1.47,1.47,0,0,1-.13-.62"/><path class="cls-1" d="M508.67,61.77V51.23a1.51,1.51,0,0,1,.13-.63,1.64,1.64,0,0,1,.35-.52,1.54,1.54,0,0,1,.52-.35,1.5,1.5,0,0,1,.62-.13h4.06a1.47,1.47,0,0,1,.62.13,1.58,1.58,0,0,1,.53.35,1.64,1.64,0,0,1,.35.52,1.68,1.68,0,0,1,.12.63V61.77a1.63,1.63,0,0,1-.12.62,1.58,1.58,0,0,1-.88.88,1.64,1.64,0,0,1-.62.13h-4.06a1.68,1.68,0,0,1-.62-.13,1.54,1.54,0,0,1-.52-.35,1.58,1.58,0,0,1-.35-.53,1.47,1.47,0,0,1-.13-.62"/><path class="cls-1" d="M520.84,61.77V19.59a1.54,1.54,0,0,1,.48-1.15,1.54,1.54,0,0,1,.52-.35,1.5,1.5,0,0,1,.62-.13h4.06a1.47,1.47,0,0,1,.62.13,1.58,1.58,0,0,1,.53.35A1.64,1.64,0,0,1,528,19a1.68,1.68,0,0,1,.12.63V61.77a1.63,1.63,0,0,1-.12.62,1.58,1.58,0,0,1-.88.88,1.64,1.64,0,0,1-.62.13h-4.06a1.68,1.68,0,0,1-.62-.13,1.54,1.54,0,0,1-.52-.35,1.61,1.61,0,0,1-.36-.53,1.63,1.63,0,0,1-.12-.62"/><path class="cls-1" d="M533,61.77v-26a1.67,1.67,0,0,1,.12-.62,1.72,1.72,0,0,1,.36-.53,1.54,1.54,0,0,1,.52-.35,1.67,1.67,0,0,1,.62-.12h4.06a1.67,1.67,0,0,1,.62.12,1.58,1.58,0,0,1,.88.88,1.67,1.67,0,0,1,.12.62v26a1.63,1.63,0,0,1-.12.62,1.58,1.58,0,0,1-.35.53,1.69,1.69,0,0,1-1.15.48h-4.06a1.68,1.68,0,0,1-.62-.13,1.54,1.54,0,0,1-.52-.35,1.61,1.61,0,0,1-.36-.53,1.63,1.63,0,0,1-.12-.62"/><path class="cls-1" d="M545.18,61.77V34.19a1.63,1.63,0,0,1,.12-.62,1.75,1.75,0,0,1,.35-.53,1.69,1.69,0,0,1,.53-.35,1.67,1.67,0,0,1,.62-.12h4.87a1.67,1.67,0,0,1,.62.12,1.58,1.58,0,0,1,.88.88,1.63,1.63,0,0,1,.12.62V61.77a1.63,1.63,0,0,1-.12.62,1.58,1.58,0,0,1-.88.88,1.68,1.68,0,0,1-.62.13H546.8a1.69,1.69,0,0,1-1.15-.48,1.75,1.75,0,0,1-.35-.53,1.63,1.63,0,0,1-.12-.62"/><path class="cls-2" d="M558.16,61.77V13.1a1.54,1.54,0,0,1,.48-1.15,1.54,1.54,0,0,1,.52-.35,1.5,1.5,0,0,1,.62-.13h4.06a1.5,1.5,0,0,1,.62.13A1.69,1.69,0,0,1,565,12a1.64,1.64,0,0,1,.35.52,1.68,1.68,0,0,1,.12.63V61.77a1.63,1.63,0,0,1-.12.62,1.58,1.58,0,0,1-.35.53,1.69,1.69,0,0,1-1.15.48h-4.06a1.68,1.68,0,0,1-.62-.13,1.54,1.54,0,0,1-.52-.35,1.61,1.61,0,0,1-.36-.53,1.63,1.63,0,0,1-.12-.62"/><path class="cls-1" d="M570.33,61.77V49.6a1.67,1.67,0,0,1,.12-.62,1.7,1.7,0,0,1,.35-.52,1.72,1.72,0,0,1,.53-.36A1.67,1.67,0,0,1,572,48H576a1.67,1.67,0,0,1,.62.12,1.72,1.72,0,0,1,.53.36,1.54,1.54,0,0,1,.35.52,1.67,1.67,0,0,1,.12.62V61.77a1.63,1.63,0,0,1-.12.62,1.58,1.58,0,0,1-.35.53,1.69,1.69,0,0,1-1.15.48H572a1.69,1.69,0,0,1-1.15-.48,1.75,1.75,0,0,1-.35-.53,1.63,1.63,0,0,1-.12-.62"/><path class="cls-1" d="M582.5,61.77V33.38a1.63,1.63,0,0,1,.12-.62,1.58,1.58,0,0,1,.35-.53,1.69,1.69,0,0,1,.53-.35,1.67,1.67,0,0,1,.62-.12H589a1.67,1.67,0,0,1,.62.12,1.69,1.69,0,0,1,.53.35,1.58,1.58,0,0,1,.35.53,1.63,1.63,0,0,1,.12.62V61.77a1.63,1.63,0,0,1-.12.62,1.58,1.58,0,0,1-.35.53,1.69,1.69,0,0,1-1.15.48h-4.87a1.69,1.69,0,0,1-1.15-.48,1.58,1.58,0,0,1-.35-.53,1.63,1.63,0,0,1-.12-.62"/><path class="cls-2" d="M595.48,61.77V49.6a1.67,1.67,0,0,1,.12-.62,1.54,1.54,0,0,1,.35-.52,1.72,1.72,0,0,1,.53-.36,1.67,1.67,0,0,1,.62-.12h4.06a1.67,1.67,0,0,1,.62.12,1.72,1.72,0,0,1,.53.36,1.7,1.7,0,0,1,.35.52,1.67,1.67,0,0,1,.12.62V61.77a1.63,1.63,0,0,1-.12.62,1.75,1.75,0,0,1-.35.53,1.69,1.69,0,0,1-1.15.48H597.1a1.69,1.69,0,0,1-1.15-.48,1.58,1.58,0,0,1-.35-.53,1.63,1.63,0,0,1-.12-.62"/><path class="cls-1" d="M607.65,61.77V52a1.62,1.62,0,0,1,.47-1.15,1.69,1.69,0,0,1,1.15-.48h4.06a1.68,1.68,0,0,1,.62.13,1.54,1.54,0,0,1,.52.35A1.58,1.58,0,0,1,615,52v9.73a1.63,1.63,0,0,1-.12.62,1.61,1.61,0,0,1-.36.53,1.54,1.54,0,0,1-.52.35,1.68,1.68,0,0,1-.62.13h-4.06a1.69,1.69,0,0,1-1.15-.48,1.58,1.58,0,0,1-.35-.53,1.63,1.63,0,0,1-.12-.62"/><path class="cls-1" d="M619.82,61.77V32.57a1.68,1.68,0,0,1,.12-.63,1.64,1.64,0,0,1,.35-.52,1.58,1.58,0,0,1,.53-.35,1.47,1.47,0,0,1,.62-.13h4.06a1.5,1.5,0,0,1,.62.13,1.54,1.54,0,0,1,.52.35,1.54,1.54,0,0,1,.48,1.15v29.2a1.63,1.63,0,0,1-.12.62,1.61,1.61,0,0,1-.36.53,1.54,1.54,0,0,1-.52.35,1.68,1.68,0,0,1-.62.13h-4.06a1.64,1.64,0,0,1-.62-.13,1.58,1.58,0,0,1-.88-.88,1.63,1.63,0,0,1-.12-.62"/><path class="cls-1" d="M632,61.77V17.15a1.67,1.67,0,0,1,.12-.62,1.69,1.69,0,0,1,.35-.53,1.75,1.75,0,0,1,.53-.35,1.63,1.63,0,0,1,.62-.12h4.87a1.67,1.67,0,0,1,.62.12,1.7,1.7,0,0,1,.52.35,1.72,1.72,0,0,1,.36.53,1.67,1.67,0,0,1,.12.62V61.77a1.63,1.63,0,0,1-.12.62,1.61,1.61,0,0,1-.36.53,1.54,1.54,0,0,1-.52.35,1.68,1.68,0,0,1-.62.13h-4.87a1.64,1.64,0,0,1-.62-.13,1.58,1.58,0,0,1-.88-.88,1.63,1.63,0,0,1-.12-.62"/><path class="cls-1" d="M645,61.77V29.32a1.67,1.67,0,0,1,.12-.62,1.69,1.69,0,0,1,.35-.53,1.58,1.58,0,0,1,.53-.35,1.63,1.63,0,0,1,.62-.12h4.06a1.67,1.67,0,0,1,.62.12,1.54,1.54,0,0,1,.52.35,1.72,1.72,0,0,1,.36.53,1.67,1.67,0,0,1,.12.62V61.77a1.63,1.63,0,0,1-.12.62,1.61,1.61,0,0,1-.36.53,1.54,1.54,0,0,1-.52.35,1.68,1.68,0,0,1-.62.13h-4.06a1.64,1.64,0,0,1-.62-.13,1.58,1.58,0,0,1-.88-.88,1.63,1.63,0,0,1-.12-.62"/><path class="cls-1" d="M657.14,61.77V16.34a1.63,1.63,0,0,1,.12-.62,1.69,1.69,0,0,1,.35-.53,1.58,1.58,0,0,1,.53-.35,1.63,1.63,0,0,1,.62-.12h4.06a1.67,1.67,0,0,1,.62.12,1.64,1.64,0,0,1,.52.35,1.69,1.69,0,0,1,.35.53,1.47,1.47,0,0,1,.13.62V61.77a1.47,1.47,0,0,1-.13.62,1.58,1.58,0,0,1-.35.53,1.64,1.64,0,0,1-.52.35,1.68,1.68,0,0,1-.62.13h-4.06a1.64,1.64,0,0,1-.62-.13,1.58,1.58,0,0,1-.88-.88,1.63,1.63,0,0,1-.12-.62"/><path class="cls-1" d="M669.31,61.77v-17a1.68,1.68,0,0,1,.12-.63,1.64,1.64,0,0,1,.35-.52,1.58,1.58,0,0,1,.53-.35,1.47,1.47,0,0,1,.62-.13H675a1.51,1.51,0,0,1,.63.13,1.63,1.63,0,0,1,.87.87,1.51,1.51,0,0,1,.13.63v17a1.47,1.47,0,0,1-.13.62,1.58,1.58,0,0,1-.35.53,1.64,1.64,0,0,1-.52.35,1.69,1.69,0,0,1-.63.13h-4.05a1.64,1.64,0,0,1-.62-.13,1.58,1.58,0,0,1-.88-.88,1.63,1.63,0,0,1-.12-.62"/><path class="cls-1" d="M681.47,61.77V11.47a1.68,1.68,0,0,1,.13-.62,1.54,1.54,0,0,1,.35-.52,1.61,1.61,0,0,1,.53-.36,1.63,1.63,0,0,1,.62-.12H688a1.54,1.54,0,0,1,1.14.48,1.54,1.54,0,0,1,.35.52,1.5,1.5,0,0,1,.13.62v50.3a1.47,1.47,0,0,1-.13.62,1.58,1.58,0,0,1-.35.53,1.64,1.64,0,0,1-.52.35,1.68,1.68,0,0,1-.62.13H683.1a1.64,1.64,0,0,1-.62-.13,1.58,1.58,0,0,1-.88-.88,1.64,1.64,0,0,1-.13-.62"/><path class="cls-2" d="M694.46,61.77V17.15a1.67,1.67,0,0,1,.12-.62,1.69,1.69,0,0,1,.35-.53,1.75,1.75,0,0,1,.53-.35,1.63,1.63,0,0,1,.62-.12h4a1.68,1.68,0,0,1,.63.12,1.83,1.83,0,0,1,.52.35,1.69,1.69,0,0,1,.35.53,1.5,1.5,0,0,1,.13.62V61.77a1.47,1.47,0,0,1-.13.62,1.58,1.58,0,0,1-.35.53,1.64,1.64,0,0,1-.52.35,1.69,1.69,0,0,1-.63.13h-4a1.64,1.64,0,0,1-.62-.13,1.58,1.58,0,0,1-.88-.88,1.63,1.63,0,0,1-.12-.62"/><path class="cls-1" d="M706.62,61.77V18a1.68,1.68,0,0,1,.13-.62,1.54,1.54,0,0,1,.35-.52,1.58,1.58,0,0,1,1.15-.48h4a1.58,1.58,0,0,1,1.15.48,1.54,1.54,0,0,1,.35.52,1.68,1.68,0,0,1,.13.62V61.77a1.64,1.64,0,0,1-.13.62,1.58,1.58,0,0,1-.88.88,1.6,1.6,0,0,1-.62.13h-4a1.6,1.6,0,0,1-.62-.13,1.58,1.58,0,0,1-.88-.88,1.64,1.64,0,0,1-.13-.62"/><path class="cls-1" d="M718.79,61.77v-30a1.51,1.51,0,0,1,.13-.63,1.54,1.54,0,0,1,.35-.52,1.58,1.58,0,0,1,.53-.35,1.44,1.44,0,0,1,.62-.13h4.86a1.44,1.44,0,0,1,.62.13,1.58,1.58,0,0,1,.53.35,1.54,1.54,0,0,1,.35.52,1.51,1.51,0,0,1,.13.63v30a1.47,1.47,0,0,1-.13.62,1.58,1.58,0,0,1-.88.88,1.6,1.6,0,0,1-.62.13h-4.86a1.6,1.6,0,0,1-.62-.13,1.58,1.58,0,0,1-.88-.88,1.47,1.47,0,0,1-.13-.62"/><path class="cls-1" d="M731.77,61.77V18a1.68,1.68,0,0,1,.13-.62,1.54,1.54,0,0,1,.35-.52,1.58,1.58,0,0,1,1.15-.48h4.05a1.58,1.58,0,0,1,1.15.48,1.54,1.54,0,0,1,.35.52,1.68,1.68,0,0,1,.13.62V61.77a1.64,1.64,0,0,1-.13.62,1.58,1.58,0,0,1-.88.88,1.6,1.6,0,0,1-.62.13H733.4a1.6,1.6,0,0,1-.62-.13,1.58,1.58,0,0,1-.88-.88,1.64,1.64,0,0,1-.13-.62"/><path class="cls-1" d="M743.94,61.77v-43a1.5,1.5,0,0,1,.13-.62,1.54,1.54,0,0,1,.35-.52,1.64,1.64,0,0,1,.52-.35,1.51,1.51,0,0,1,.63-.13h4a1.47,1.47,0,0,1,.62.13,1.58,1.58,0,0,1,.53.35,1.54,1.54,0,0,1,.35.52,1.67,1.67,0,0,1,.12.62v43a1.63,1.63,0,0,1-.12.62,1.58,1.58,0,0,1-.88.88,1.64,1.64,0,0,1-.62.13h-4a1.69,1.69,0,0,1-.63-.13,1.64,1.64,0,0,1-.52-.35,1.58,1.58,0,0,1-.35-.53,1.47,1.47,0,0,1-.13-.62"/><path class="cls-1" d="M756.11,61.77V26.08a1.51,1.51,0,0,1,.13-.63,1.64,1.64,0,0,1,.35-.52,1.54,1.54,0,0,1,.52-.35,1.51,1.51,0,0,1,.63-.13h4a1.47,1.47,0,0,1,.62.13,1.58,1.58,0,0,1,.53.35,1.64,1.64,0,0,1,.35.52,1.68,1.68,0,0,1,.12.63V61.77a1.63,1.63,0,0,1-.12.62,1.58,1.58,0,0,1-.88.88,1.64,1.64,0,0,1-.62.13h-4a1.69,1.69,0,0,1-.63-.13,1.54,1.54,0,0,1-.52-.35,1.58,1.58,0,0,1-.35-.53,1.47,1.47,0,0,1-.13-.62"/><path class="cls-1" d="M768.28,61.77V51.23a1.51,1.51,0,0,1,.13-.63,1.49,1.49,0,0,1,.35-.52,1.54,1.54,0,0,1,.52-.35,1.5,1.5,0,0,1,.62-.13h4.87a1.47,1.47,0,0,1,.62.13,1.58,1.58,0,0,1,.53.35,1.64,1.64,0,0,1,.35.52,1.68,1.68,0,0,1,.12.63V61.77a1.63,1.63,0,0,1-.12.62,1.58,1.58,0,0,1-.88.88,1.64,1.64,0,0,1-.62.13H769.9a1.68,1.68,0,0,1-.62-.13,1.54,1.54,0,0,1-.52-.35,1.44,1.44,0,0,1-.35-.53,1.47,1.47,0,0,1-.13-.62"/><path class="cls-2" d="M781.26,61.77v-30a1.51,1.51,0,0,1,.13-.63,1.63,1.63,0,0,1,.87-.87,1.5,1.5,0,0,1,.62-.13h4.06a1.47,1.47,0,0,1,.62.13,1.58,1.58,0,0,1,.53.35,1.54,1.54,0,0,1,.35.52,1.68,1.68,0,0,1,.12.63v30a1.63,1.63,0,0,1-.12.62,1.58,1.58,0,0,1-.88.88,1.64,1.64,0,0,1-.62.13h-4.06a1.68,1.68,0,0,1-.62-.13,1.54,1.54,0,0,1-.52-.35,1.58,1.58,0,0,1-.35-.53,1.47,1.47,0,0,1-.13-.62"/><path class="cls-1" d="M793.43,61.77V25.26a1.54,1.54,0,0,1,.48-1.14,1.41,1.41,0,0,1,.52-.35,1.5,1.5,0,0,1,.62-.13h4.06a1.47,1.47,0,0,1,.62.13,1.44,1.44,0,0,1,.53.35,1.64,1.64,0,0,1,.35.52,1.67,1.67,0,0,1,.12.62V61.77a1.63,1.63,0,0,1-.12.62,1.58,1.58,0,0,1-.88.88,1.64,1.64,0,0,1-.62.13h-4.06a1.68,1.68,0,0,1-.62-.13,1.54,1.54,0,0,1-.52-.35,1.61,1.61,0,0,1-.36-.53,1.63,1.63,0,0,1-.12-.62"/><path class="cls-1" d="M805.6,61.77V53.66a1.63,1.63,0,0,1,.12-.62,1.61,1.61,0,0,1,.36-.53,1.54,1.54,0,0,1,.52-.35,1.67,1.67,0,0,1,.62-.12h4.87a1.63,1.63,0,0,1,.62.12,1.58,1.58,0,0,1,.88.88,1.63,1.63,0,0,1,.12.62v8.11a1.63,1.63,0,0,1-.12.62,1.58,1.58,0,0,1-.88.88,1.64,1.64,0,0,1-.62.13h-4.87a1.68,1.68,0,0,1-.62-.13,1.54,1.54,0,0,1-.52-.35,1.61,1.61,0,0,1-.36-.53,1.63,1.63,0,0,1-.12-.62"/><path class="cls-1" d="M818.58,61.77V39.06a1.58,1.58,0,0,1,.48-1.15,1.54,1.54,0,0,1,.52-.35,1.5,1.5,0,0,1,.62-.13h4.06a1.47,1.47,0,0,1,.62.13,1.61,1.61,0,0,1,1,1.5V61.77a1.63,1.63,0,0,1-.12.62,1.58,1.58,0,0,1-.88.88,1.64,1.64,0,0,1-.62.13H820.2a1.68,1.68,0,0,1-.62-.13,1.54,1.54,0,0,1-.52-.35,1.61,1.61,0,0,1-.36-.53,1.63,1.63,0,0,1-.12-.62"/><path class="cls-1" d="M830.75,61.77V15.53a1.63,1.63,0,0,1,.12-.62,1.61,1.61,0,0,1,.36-.53,1.54,1.54,0,0,1,.52-.35,1.67,1.67,0,0,1,.62-.12h4.06a1.67,1.67,0,0,1,.62.12,1.69,1.69,0,0,1,.53.35,1.58,1.58,0,0,1,.35.53,1.63,1.63,0,0,1,.12.62V61.77a1.63,1.63,0,0,1-.12.62,1.58,1.58,0,0,1-.35.53,1.69,1.69,0,0,1-1.15.48h-4.06a1.68,1.68,0,0,1-.62-.13,1.54,1.54,0,0,1-.52-.35,1.61,1.61,0,0,1-.36-.53,1.63,1.63,0,0,1-.12-.62"/><path class="cls-1" d="M842.92,61.77V55.28a1.67,1.67,0,0,1,.12-.62,1.69,1.69,0,0,1,.35-.53,1.88,1.88,0,0,1,.53-.35,1.67,1.67,0,0,1,.62-.12h4.06a1.67,1.67,0,0,1,.62.12,1.88,1.88,0,0,1,.53.35,1.69,1.69,0,0,1,.35.53,1.67,1.67,0,0,1,.12.62v6.49a1.63,1.63,0,0,1-.12.62,1.58,1.58,0,0,1-.35.53,1.69,1.69,0,0,1-1.15.48h-4.06a1.69,1.69,0,0,1-1.15-.48,1.58,1.58,0,0,1-.35-.53,1.63,1.63,0,0,1-.12-.62"/><path class="cls-1" d="M855.09,61.77V25.26a1.67,1.67,0,0,1,.12-.62,1.64,1.64,0,0,1,.35-.52,1.53,1.53,0,0,1,.53-.35,1.5,1.5,0,0,1,.62-.13h4.87a1.5,1.5,0,0,1,.62.13,1.53,1.53,0,0,1,.53.35,1.64,1.64,0,0,1,.35.52,1.67,1.67,0,0,1,.12.62V61.77a1.63,1.63,0,0,1-.12.62,1.58,1.58,0,0,1-.35.53,1.69,1.69,0,0,1-1.15.48h-4.87a1.69,1.69,0,0,1-1.15-.48,1.58,1.58,0,0,1-.35-.53,1.63,1.63,0,0,1-.12-.62"/><path class="cls-2" d="M868.07,61.77V26.89a1.63,1.63,0,0,1,.12-.62,1.58,1.58,0,0,1,.35-.53,1.69,1.69,0,0,1,1.15-.48h4.06a1.69,1.69,0,0,1,1.15.48,1.75,1.75,0,0,1,.35.53,1.63,1.63,0,0,1,.12.62V61.77a1.63,1.63,0,0,1-.12.62,1.75,1.75,0,0,1-.35.53,1.69,1.69,0,0,1-1.15.48h-4.06a1.69,1.69,0,0,1-1.15-.48,1.58,1.58,0,0,1-.35-.53,1.63,1.63,0,0,1-.12-.62"/><path class="cls-1" d="M880.24,61.77V42.3a1.67,1.67,0,0,1,.12-.62,1.69,1.69,0,0,1,.35-.53,1.88,1.88,0,0,1,.53-.35,1.67,1.67,0,0,1,.62-.12h4.06a1.67,1.67,0,0,1,.62.12,1.7,1.7,0,0,1,.52.35,1.72,1.72,0,0,1,.36.53,1.67,1.67,0,0,1,.12.62V61.77a1.63,1.63,0,0,1-.12.62,1.61,1.61,0,0,1-.36.53,1.54,1.54,0,0,1-.52.35,1.68,1.68,0,0,1-.62.13h-4.06a1.69,1.69,0,0,1-1.15-.48,1.58,1.58,0,0,1-.35-.53,1.63,1.63,0,0,1-.12-.62"/><path class="cls-1" d="M892.41,61.77V22a1.63,1.63,0,0,1,.12-.62,1.58,1.58,0,0,1,.88-.88,1.63,1.63,0,0,1,.62-.12h4.87a1.67,1.67,0,0,1,.62.12,1.54,1.54,0,0,1,.52.35,1.61,1.61,0,0,1,.36.53,1.63,1.63,0,0,1,.12.62V61.77a1.63,1.63,0,0,1-.12.62,1.61,1.61,0,0,1-.36.53,1.54,1.54,0,0,1-.52.35,1.68,1.68,0,0,1-.62.13H894a1.64,1.64,0,0,1-.62-.13,1.58,1.58,0,0,1-.88-.88,1.63,1.63,0,0,1-.12-.62"/><path class="cls-1" d="M905.39,61.77V43.92a1.67,1.67,0,0,1,.12-.62,1.54,1.54,0,0,1,.35-.52,1.72,1.72,0,0,1,.53-.36,1.67,1.67,0,0,1,.62-.12h4.06a1.67,1.67,0,0,1,.62.12,1.77,1.77,0,0,1,.88.88,1.67,1.67,0,0,1,.12.62V61.77a1.63,1.63,0,0,1-.12.62,1.61,1.61,0,0,1-.36.53,1.54,1.54,0,0,1-.52.35,1.68,1.68,0,0,1-.62.13H907a1.69,1.69,0,0,1-1.15-.48,1.58,1.58,0,0,1-.35-.53,1.63,1.63,0,0,1-.12-.62"/><path class="cls-1" d="M917.56,61.77V45.55a1.6,1.6,0,0,1,1-1.5,1.64,1.64,0,0,1,.62-.13h4.06a1.68,1.68,0,0,1,.62.13,1.54,1.54,0,0,1,.52.35,1.58,1.58,0,0,1,.48,1.15V61.77a1.63,1.63,0,0,1-.12.62,1.61,1.61,0,0,1-.36.53,1.54,1.54,0,0,1-.52.35,1.68,1.68,0,0,1-.62.13h-4.06a1.64,1.64,0,0,1-.62-.13,1.58,1.58,0,0,1-.88-.88,1.63,1.63,0,0,1-.12-.62"/><path class="cls-1" d="M929.73,61.77V14.72a1.63,1.63,0,0,1,.12-.62,1.58,1.58,0,0,1,.88-.88,1.63,1.63,0,0,1,.62-.12h4a1.68,1.68,0,0,1,.63.12,1.64,1.64,0,0,1,.52.35,1.58,1.58,0,0,1,.35.53,1.47,1.47,0,0,1,.13.62V61.77a1.47,1.47,0,0,1-.13.62,1.58,1.58,0,0,1-.35.53,1.64,1.64,0,0,1-.52.35,1.69,1.69,0,0,1-.63.13h-4a1.64,1.64,0,0,1-.62-.13,1.58,1.58,0,0,1-.88-.88,1.63,1.63,0,0,1-.12-.62"/><path class="cls-1" d="M941.9,61.77V51.23a1.68,1.68,0,0,1,.12-.63,1.64,1.64,0,0,1,.35-.52,1.58,1.58,0,0,1,.53-.35,1.47,1.47,0,0,1,.62-.13h4.87a1.5,1.5,0,0,1,.62.13,1.54,1.54,0,0,1,.52.35,1.64,1.64,0,0,1,.35.52,1.51,1.51,0,0,1,.13.63V61.77a1.47,1.47,0,0,1-.13.62,1.58,1.58,0,0,1-.35.53,1.54,1.54,0,0,1-.52.35,1.68,1.68,0,0,1-.62.13h-4.87a1.64,1.64,0,0,1-.62-.13,1.58,1.58,0,0,1-.88-.88,1.63,1.63,0,0,1-.12-.62"/><path class="cls-1" d="M954.88,61.77v-13a1.67,1.67,0,0,1,.12-.62,1.69,1.69,0,0,1,.35-.53,1.58,1.58,0,0,1,.53-.35,1.63,1.63,0,0,1,.62-.12h4a1.68,1.68,0,0,1,.63.12,1.64,1.64,0,0,1,.52.35,1.69,1.69,0,0,1,.35.53,1.5,1.5,0,0,1,.13.62v13a1.47,1.47,0,0,1-.13.62,1.58,1.58,0,0,1-.35.53,1.64,1.64,0,0,1-.52.35,1.69,1.69,0,0,1-.63.13h-4a1.64,1.64,0,0,1-.62-.13,1.58,1.58,0,0,1-.88-.88,1.63,1.63,0,0,1-.12-.62"/><path class="cls-1" d="M967.05,61.77V35a1.63,1.63,0,0,1,.12-.62,1.58,1.58,0,0,1,.88-.88,1.63,1.63,0,0,1,.62-.12h4.05a1.68,1.68,0,0,1,.63.12,1.64,1.64,0,0,1,.52.35,1.58,1.58,0,0,1,.35.53,1.47,1.47,0,0,1,.13.62V61.77a1.47,1.47,0,0,1-.13.62,1.58,1.58,0,0,1-.35.53,1.64,1.64,0,0,1-.52.35,1.69,1.69,0,0,1-.63.13h-4.05a1.64,1.64,0,0,1-.62-.13,1.58,1.58,0,0,1-.88-.88,1.63,1.63,0,0,1-.12-.62"/><path class="cls-1" d="M979.21,61.77v-30a1.69,1.69,0,0,1,.13-.63,1.54,1.54,0,0,1,.35-.52,1.58,1.58,0,0,1,.53-.35,1.44,1.44,0,0,1,.62-.13h4.86a1.51,1.51,0,0,1,.63.13,1.64,1.64,0,0,1,.52.35,1.54,1.54,0,0,1,.35.52,1.51,1.51,0,0,1,.13.63v30a1.47,1.47,0,0,1-.13.62,1.58,1.58,0,0,1-.35.53,1.64,1.64,0,0,1-.52.35,1.69,1.69,0,0,1-.63.13h-4.86a1.6,1.6,0,0,1-.62-.13,1.58,1.58,0,0,1-.88-.88,1.64,1.64,0,0,1-.13-.62"/></svg>