<svg id="Calque_1" data-name="Calque 1" xmlns="http://www.w3.org/2000/svg" viewBox="0 0 128 128"><defs><style>.cls-1{fill:#20a162;}.cls-2{fill:#fff;}.cls-3{fill:#27bb75;}.cls-4{fill:#7ad1ac;}</style></defs><rect class="cls-1" x="1.76" y="84.42" width="38.8" height="5.19" rx="1.59"/><rect class="cls-1" x="17.5" y="72.41" width="29.28" height="5.19" rx="1.62"/><rect class="cls-1" x="18.75" y="58.49" width="29.28" height="5.19" rx="1.62"/><rect class="cls-1" x="4.85" y="44.6" width="39.16" height="3.44" rx="1.07"/><path class="cls-1" d="M68.54,40.74A27,27,0,1,0,95.59,67.8,27,27,0,0,0,68.54,40.74Zm0,33.41a6.36,6.36,0,1,1,6.37-6.35A6.36,6.36,0,0,1,68.54,74.15Z"/><path class="cls-2" d="M64.06,26.75l-.29-3.55c-.68-.49-3.8,1.17-4.71-.82A13.82,13.82,0,0,1,58.82,18c.19-1.59.81-1.87,2.3-2a124.37,124.37,0,0,1,16.94,0c.8.07,1.66.25,1.92,1.16a24.74,24.74,0,0,1,0,5.09c-.43,1.45-3.67.62-4.86.83l-.3,3.68Z"/><path class="cls-2" d="M30,63.31a36.71,36.71,0,0,1,2.65-10C40,35.16,60.69,26,79.51,31.1c7.37,2,15.23,6.71,19.56,13.08-.53.65-1.13,1.55-2.11,1.39l-.16-1.86-3,3C91.75,45,90,43.07,87.71,41.59c-20-13.2-47.7-2.21-51.21,21.72Z"/><path class="cls-2" d="M36.5,73a25.59,25.59,0,0,0,3.69,10.17A33.25,33.25,0,0,0,88.33,93.44c1.72-1.23,3.14-2.79,4.89-4-1,3.24-2.7,6.64-3,10-23.17,15.88-56,1.19-60.2-26.33C30.24,72,35.47,73.11,36.5,73Z"/><path class="cls-2" d="M59.41,22.54c-1.11-.31-1.3-6.38.06-6.78,5.85.32,12.59-.64,18.34-.08.81.08,1.68.26,1.94,1.17a14.83,14.83,0,0,1-.07,4.46c-.62,2-3.53,1-5.16,1.23l-.29,3.6-10.31.14V22.54Z"/><path class="cls-2" d="M91.78,56.37c0,.08.34.09.48.12l-8.7,12.42,24.62-.3c-1.72,2.78-2.35,6.13-4.37,8.7-.83-.2-.47-1.12-.63-1.63-.09-.29-.62-.24-.63-.41,0-.59,1.55-3.3,1.26-3.55L78,71.4c4.4-5.63,8.41-11.7,13.4-16.8A2.7,2.7,0,0,0,91.78,56.37Z"/><path class="cls-2" d="M75.34,64.75a31.08,31.08,0,0,0-2,2.61c-1.07,1.68-.91,3.13-3.6,3.43-4.36.5-5.16-4.25-2.14-6.13a3.68,3.68,0,0,0,.44-.23c5.3-4.39,4.62-3.78,7.21-5.74,4.52-3.43,9-7.13,13.49-10.62.84.57.34,1.16-.16,1.7C84.1,54.6,79.37,59.82,75.34,64.75Z"/><path class="cls-2" d="M40.77,28.2c1.9-.56,2.89,2.29,4.14,3.21-1.86,1.67-3.21,3.86-5.14,5.45-.28.24-2.58,1.89-2.74,2-1.34.56-4-2.28-3.6-3.59Z"/><path class="cls-2" d="M97.22,86.4l-.73,3.38c-1.45.58-1.15-.33-1.31-.62-.31-.59-.76-.79-.48-1.47C95.17,86.51,96.08,85.23,97.22,86.4Z"/><path class="cls-2" d="M81.7,43.72c2.45-.24.08,2.92-.48,4C78.83,46.8,81.6,45.37,81.7,43.72Z"/><rect class="cls-2" x="40.55" y="67.36" width="4.36" height="1.24"/><path class="cls-2" d="M44.6,81.06,48,79l1,.65C48,80.39,45,83.33,44.6,81.06Z"/><path class="cls-2" d="M68.6,40.28l1,.14C70.81,46,67.89,46.06,68.6,40.28Z"/><path class="cls-2" d="M45.08,53.35c.67.29,4,2,3.88,2.64-.08.41-.53.46-1,.35a27,27,0,0,1-3.41-2.21Z"/><path class="cls-2" d="M58,87.9c.32.39-2.07,4.48-3.11,3.42l2.18-3.6Z"/><path class="cls-2" d="M56.07,44.09c.18.1,2.33,3.41,1.15,3.66-.41.09-2.2-2.86-2.33-3.27C54.68,43.78,55.75,43.91,56.07,44.09Z"/><path class="cls-2" d="M81.7,91.31c0-1.22-2.28-2.61-1.1-3.72.73-.14,1.85,2.79,2.33,3.27Z"/><path class="cls-2" d="M92.59,81.06l-.15.62c-1.27.15-2.35-1.06-3.45-1.56l.18-.93Z"/><polygon class="cls-2" points="68.6 90.7 69.53 90.7 69.56 94.29 68.6 95.06 68.6 90.7"/><polygon class="cls-3" points="109.95 26.1 71.89 73.27 97.57 73.66 83.78 112.5 126.25 59.95 101.67 59.95 113.09 22.22 109.95 26.1"/><polygon class="cls-4" points="112.65 22.22 77.65 70.37 101.53 70.37 83.52 112.5 97.57 73.66 71.89 73.26 112.65 22.22"/></svg>