<svg id="Calque_1" data-name="Calque 1" xmlns="http://www.w3.org/2000/svg" xmlns:xlink="http://www.w3.org/1999/xlink" viewBox="0 0 1000 1000"><defs><style>.cls-1{fill:url(#radial-gradient);}.cls-2{fill:none;}.cls-14,.cls-17,.cls-3,.cls-9{isolation:isolate;}.cls-4{clip-path:url(#clip-path);}.cls-5{opacity:0.37;}.cls-6{clip-path:url(#clip-path-3);}.cls-7{mask:url(#mask);}.cls-8{fill:url(#radial-gradient-2);}.cls-9{opacity:0.06;}.cls-10{clip-path:url(#clip-path-4);}.cls-11,.cls-16{fill:#2bd37a;}.cls-12{fill:#e9eef6;}.cls-13{clip-path:url(#clip-path-5);}.cls-14{opacity:0.3;}.cls-15{clip-path:url(#clip-path-6);}.cls-16{fill-rule:evenodd;opacity:0.12;}.cls-17{opacity:0.53;}.cls-18{clip-path:url(#clip-path-7);}</style><radialGradient id="radial-gradient" cx="-459.8" cy="5101.42" r="0.63" gradientTransform="matrix(729.16, 0, 0, -729.16, 335767.6, 3720240.99)" gradientUnits="userSpaceOnUse"><stop offset="0" stop-color="#fff"/><stop offset="1"/></radialGradient><clipPath id="clip-path"><rect class="cls-2" x="43.36" y="43.36" width="913.28" height="913.28"/></clipPath><clipPath id="clip-path-3"><rect class="cls-2" x="43.36" y="43.36" width="913.28" height="913.28"/></clipPath><mask id="mask" x="43.36" y="43.36" width="913.28" height="913.28" maskUnits="userSpaceOnUse"><rect class="cls-1" x="43.36" y="43.36" width="913.28" height="913.28"/></mask><radialGradient id="radial-gradient-2" cx="-459.8" cy="5101.42" r="0.63" gradientTransform="matrix(729.16, 0, 0, -729.16, 335767.63, 3720241.3)" gradientUnits="userSpaceOnUse"><stop offset="0" stop-color="#2bd37a"/><stop offset="1" stop-color="#0f2b1f"/></radialGradient><clipPath id="clip-path-4"><rect class="cls-2" x="216.87" y="208" width="584.54" height="604.11"/></clipPath><clipPath id="clip-path-5"><rect class="cls-2" x="147.75" y="225.61" width="588.19" height="639.35"/></clipPath><clipPath id="clip-path-6"><rect class="cls-2" x="133.57" y="127.31" width="721.09" height="735"/></clipPath><clipPath id="clip-path-7"><rect class="cls-2" x="168.84" y="163.02" width="650.54" height="663.06"/></clipPath></defs><g class="cls-3"><g class="cls-4"><g class="cls-5"><g class="cls-4"><g class="cls-6"><g class="cls-7"><rect class="cls-8" x="43.36" y="43.36" width="913.28" height="913.28"/></g></g></g></g><g class="cls-9"><g class="cls-10"><path class="cls-11" d="M416.8,488.35a8.59,8.59,0,1,1-8.58,8.58,8.59,8.59,0,0,1,8.58-8.58M457,494A10.08,10.08,0,0,1,446.88,504h-.8A10.08,10.08,0,0,1,436,494V448.68a10.08,10.08,0,0,1,10.05-10.06h.8A10.08,10.08,0,0,1,457,448.68Zm0,33.25v16.36a10.21,10.21,0,0,1-10.19,10.18h-.56A10.21,10.21,0,0,1,436,543.57V527.21A10.21,10.21,0,0,1,446.2,517h.56A10.22,10.22,0,0,1,457,527.21m38.51-46.54a10.47,10.47,0,0,1-20.94,0V423.46a10.47,10.47,0,0,1,20.94,0ZM485,504a10.48,10.48,0,0,1,10.46,10.46v54a10.47,10.47,0,0,1-20.94,0v-54A10.5,10.5,0,0,1,485,504m38.78-74.76a10.5,10.5,0,0,1,10.46,10.46V552.29a10.47,10.47,0,0,1-20.93,0V439.72a10.49,10.49,0,0,1,10.47-10.46m39.07,102.2A10.49,10.49,0,0,1,552.39,521V467.4a10.47,10.47,0,0,1,20.94,0V521a10.5,10.5,0,0,1-10.48,10.46m29.52-25.94a8.59,8.59,0,1,1,8.58-8.59,8.59,8.59,0,0,1-8.58,8.59m82.74,147.8H606.62L586.38,632,548.2,591.86l-11.61-12.21,33.65-34.85L586.9,562a106.74,106.74,0,1,0-82.71,39.28c3.27,0,6.49-.16,9.68-.45L556.73,646a159.46,159.46,0,1,1,67.32-45.51ZM513.87,600.87h0M504.54,208c-158.8,0-287.67,128.87-287.67,287.67S345.74,783.34,504.54,783.34A287.82,287.82,0,0,0,671.38,730.4l81.7,81.7,48.33-48.33-81.7-81.69q8.5-9.55,16.11-19.81t14.29-21.16q6.66-10.9,12.34-22.35t10.3-23.36q4.63-11.91,8.19-24.18t6-24.82q2.44-12.54,3.76-25.25t1.51-25.48C792.21,336.87,663.33,208,504.54,208"/></g></g></g></g><circle class="cls-12" cx="427.2" cy="493.26" r="8.1"/><path class="cls-12" d="M465.11,490.44a9.52,9.52,0,0,1-9.5,9.51h-.77a9.52,9.52,0,0,1-9.49-9.51V447.69a9.52,9.52,0,0,1,9.49-9.51h.77a9.52,9.52,0,0,1,9.5,9.51Z"/><path class="cls-12" d="M465.11,521.85V537.3a9.64,9.64,0,0,1-9.62,9.62H455a9.65,9.65,0,0,1-9.61-9.62V521.85a9.64,9.64,0,0,1,9.61-9.6h.53A9.64,9.64,0,0,1,465.11,521.85Z"/><path class="cls-12" d="M501.48,477.9a9.89,9.89,0,0,1-19.77,0v-54A9.92,9.92,0,0,1,491.6,414a9.9,9.9,0,0,1,9.88,9.88Z"/><path class="cls-12" d="M491.6,500a9.9,9.9,0,0,1,9.88,9.88v51a9.89,9.89,0,0,1-19.77,0v-51A9.92,9.92,0,0,1,491.6,500Z"/><path class="cls-12" d="M528.23,429.34a9.92,9.92,0,0,1,9.88,9.88V545.53a9.89,9.89,0,0,1-19.77,0V439.22A9.92,9.92,0,0,1,528.23,429.34Z"/><path class="cls-12" d="M565.14,525.86a9.91,9.91,0,0,1-9.88-9.87V465.37a9.87,9.87,0,0,1,16.86-7,9.8,9.8,0,0,1,2.91,7V516A9.91,9.91,0,0,1,565.14,525.86Z"/><circle class="cls-12" cx="593.02" cy="493.26" r="8.1" transform="translate(-23.29 957.08) rotate(-76.72)"/><circle class="cls-12" cx="427.2" cy="493.26" r="8.1" transform="translate(-156.24 201.03) rotate(-22.5)"/><path class="cls-12" d="M465.11,447.69v42.75a9.52,9.52,0,0,1-9.5,9.51h-.77a9.52,9.52,0,0,1-9.49-9.51V447.69a9.52,9.52,0,0,1,9.49-9.51h.77A9.52,9.52,0,0,1,465.11,447.69Z"/><path class="cls-12" d="M465.11,521.85V537.3a9.64,9.64,0,0,1-9.62,9.62H455a9.65,9.65,0,0,1-9.61-9.62V521.85a9.64,9.64,0,0,1,9.61-9.6h.53A9.64,9.64,0,0,1,465.11,521.85Z"/><path class="cls-12" d="M498.58,416.88a9.87,9.87,0,0,1,2.9,7v54a9.89,9.89,0,0,1-19.77,0v-54A9.92,9.92,0,0,1,491.6,414,9.81,9.81,0,0,1,498.58,416.88Z"/><path class="cls-12" d="M498.58,502.85a9.83,9.83,0,0,1,2.9,7v51a9.89,9.89,0,0,1-19.77,0v-51A9.92,9.92,0,0,1,491.6,500,9.81,9.81,0,0,1,498.58,502.85Z"/><path class="cls-12" d="M535.2,432.24a9.8,9.8,0,0,1,2.91,7V545.53a9.89,9.89,0,0,1-19.77,0V439.22a9.87,9.87,0,0,1,16.86-7Z"/><path class="cls-12" d="M555.26,516V465.37a9.87,9.87,0,0,1,16.86-7,9.8,9.8,0,0,1,2.91,7V516a9.89,9.89,0,0,1-19.77,0Z"/><circle class="cls-12" cx="593.02" cy="493.26" r="8.1" transform="translate(-175.1 563.8) rotate(-45)"/><g class="cls-13"><g class="cls-14"><g class="cls-15"><path class="cls-16" d="M135.25,494.87v-.52q0-9,.43-17.93t1.3-17.88q.86-8.93,2.15-17.8t3-17.66q1.73-8.81,3.86-17.5t4.68-17.28q2.57-8.58,5.52-17t6.33-16.73q3.36-8.28,7.12-16.39t7.91-16q4.14-7.9,8.66-15.6t9.41-15.15q4.88-7.47,10.12-14.66t10.82-14.14Q222.13,255.65,228,249t12.12-13q6.22-6.33,12.73-12.36t13.32-11.71q6.8-5.7,13.86-11t14.37-10.32q7.31-5,14.85-9.6t15.3-8.83q7.76-4.23,15.7-8.07t16.08-7.26q8.11-3.44,16.4-6.46t16.69-5.62q8.42-2.61,17-4.78T423.56,136q8.63-1.75,17.32-3.07t17.45-2.19q8.75-.89,17.53-1.32t17.58-.44q8.79,0,17.57.44t17.54,1.32q8.75.87,17.44,2.19T563.32,136q8.61,1.74,17.15,3.93t16.94,4.78q8.42,2.59,16.7,5.62t16.4,6.46q8.12,3.42,16.07,7.26t15.7,8.07q7.76,4.23,15.3,8.83t14.85,9.6q7.32,5,14.38,10.32t13.86,11q6.8,5.69,13.31,11.71T746.71,236q6.22,6.35,12.12,13t11.49,13.58q5.58,6.93,10.81,14.14t10.13,14.66q4.88,7.46,9.4,15.15t8.67,15.6q4.14,7.9,7.9,16t7.13,16.39q3.36,8.28,6.32,16.73t5.52,17q2.55,8.58,4.69,17.28t3.85,17.5q1.71,8.79,3,17.66t2.15,17.8q.86,8.93,1.29,17.88t.43,17.93v.52q0,9-.43,17.93t-1.29,17.89q-.87,8.92-2.15,17.79t-3,17.67q-1.71,8.79-3.85,17.5t-4.69,17.28q-2.55,8.58-5.52,17t-6.32,16.73Q821,643,817.23,651.08t-7.9,16q-4.14,7.9-8.67,15.6t-9.4,15.15q-4.89,7.46-10.13,14.66t-10.81,14.14q-5.58,6.93-11.48,13.58t-12.13,13q-6.21,6.35-12.73,12.37t-13.31,11.71q-6.79,5.69-13.86,11t-14.38,10.33q-7.3,5-14.85,9.59t-15.3,8.84q-7.75,4.23-15.7,8.06t-16.07,7.27q-8.13,3.44-16.4,6.45t-16.7,5.63q-8.42,2.6-16.94,4.78t-17.15,3.93Q554.7,855,546,856.27t-17.44,2.19q-8.76.88-17.54,1.32t-17.57.44q-8.79,0-17.58-.44t-17.53-1.32q-8.74-.88-17.45-2.19t-17.32-3.07q-8.62-1.76-17.15-3.93t-17-4.78q-8.41-2.61-16.69-5.63t-16.4-6.45q-8.13-3.43-16.08-7.27t-15.7-8.06q-7.75-4.23-15.3-8.84t-14.85-9.59q-7.31-5-14.37-10.33t-13.86-11q-6.79-5.68-13.32-11.71t-12.73-12.37q-6.21-6.35-12.12-13t-11.48-13.58q-5.58-6.93-10.82-14.14t-10.12-14.66q-4.89-7.46-9.41-15.15t-8.66-15.6q-4.16-7.92-7.91-16t-7.12-16.39q-3.37-8.3-6.33-16.73t-5.52-17q-2.55-8.58-4.68-17.28t-3.86-17.5q-1.71-8.79-3-17.67T137,530.69q-.87-8.94-1.3-17.89T135.25,494.87Zm-1.43,0v-.52q0-9,.44-18t1.3-18q.85-9,2.16-17.88t3-17.75q1.72-8.83,3.87-17.57t4.71-17.36q2.56-8.62,5.54-17.11t6.35-16.8q3.38-8.32,7.15-16.47t7.94-16.09q4.16-8,8.7-15.67t9.44-15.22q4.9-7.5,10.16-14.73t10.86-14.2q5.61-7,11.53-13.64t12.17-13q6.24-6.36,12.79-12.42t13.36-11.76q6.82-5.72,13.92-11.09t14.43-10.37q7.34-5,14.91-9.63t15.36-8.88q7.79-4.24,15.76-8.1t16.14-7.3q8.16-3.45,16.47-6.48t16.76-5.66q8.44-2.61,17-4.8t17.22-3.95q8.66-1.76,17.39-3.08t17.52-2.2q8.79-.88,17.6-1.33t17.65-.44q8.82,0,17.64.44t17.61,1.33q8.77.88,17.51,2.2t17.39,3.08q8.67,1.77,17.23,3.95t17,4.8q8.45,2.63,16.76,5.66t16.46,6.48q8.16,3.45,16.14,7.3t15.77,8.1q7.78,4.25,15.35,8.88t14.92,9.63q7.34,5,14.43,10.37t13.91,11.09q6.82,5.72,13.37,11.76t12.78,12.42q6.24,6.38,12.17,13t11.53,13.64q5.61,7,10.86,14.2t10.16,14.73q4.9,7.49,9.45,15.22t8.7,15.67q4.15,7.95,7.93,16.09t7.16,16.47q3.38,8.32,6.35,16.8t5.53,17.11q2.57,8.63,4.71,17.36t3.87,17.57q1.73,8.83,3,17.75t2.16,17.88q.85,9,1.3,18t.43,18v.52q0,9-.43,18t-1.3,18q-.87,9-2.16,17.87t-3,17.75q-1.73,8.84-3.87,17.58t-4.71,17.36Q835,610,832,618.51t-6.35,16.81q-3.39,8.32-7.16,16.47t-7.93,16.09q-4.17,7.93-8.7,15.67t-9.45,15.22q-4.91,7.49-10.16,14.73t-10.86,14.2q-5.59,7-11.53,13.64t-12.17,13q-6.24,6.38-12.78,12.42t-13.37,11.77q-6.83,5.71-13.91,11.08T693.23,800q-7.35,5-14.92,9.64T663,818.54q-7.79,4.25-15.77,8.1t-16.14,7.3q-8.14,3.45-16.46,6.48t-16.76,5.65q-8.45,2.61-17,4.81t-17.23,3.94q-8.65,1.75-17.39,3.08t-17.51,2.21q-8.79.89-17.61,1.32t-17.64.44q-8.83,0-17.65-.44t-17.6-1.32q-8.79-.89-17.52-2.21t-17.39-3.08q-8.65-1.76-17.22-3.94t-17-4.81q-8.44-2.61-16.76-5.65t-16.47-6.48q-8.16-3.45-16.14-7.3t-15.76-8.1q-7.79-4.24-15.36-8.88T293.65,800q-7.35-5-14.43-10.37T265.3,778.57q-6.82-5.72-13.36-11.77t-12.79-12.42q-6.24-6.37-12.17-13T215.45,727.7q-5.59-7-10.86-14.2t-10.16-14.73q-4.91-7.5-9.44-15.22t-8.7-15.67q-4.17-7.95-7.94-16.09t-7.15-16.47q-3.37-8.33-6.35-16.81t-5.54-17.1q-2.56-8.62-4.71-17.36t-3.87-17.58q-1.71-8.84-3-17.75t-2.16-17.87q-.87-9-1.3-18T133.82,494.87Z"/></g></g><g class="cls-17"><g class="cls-18"><path class="cls-16" d="M170.35,494.85v-.47q0-8.1.39-16.17t1.17-16.14c.52-5.36,1.16-10.72,1.94-16.05s1.68-10.65,2.71-15.94,2.19-10.55,3.48-15.78,2.69-10.43,4.23-15.59,3.19-10.28,5-15.36,3.69-10.11,5.71-15.09,4.16-9.92,6.43-14.79,4.63-9.69,7.13-14.45,5.09-9.45,7.81-14.07,5.55-9.19,8.49-13.67,6-8.89,9.13-13.23,6.4-8.58,9.76-12.75,6.8-8.25,10.35-12.25,7.2-7.9,10.94-11.71,7.57-7.53,11.49-11.16,7.92-7.14,12-10.56,8.26-6.74,12.51-10,8.57-6.32,13-9.32,8.87-5.88,13.4-8.65,9.14-5.43,13.8-8,9.39-5,14.17-7.27,9.61-4.49,14.49-6.55,9.82-4,14.8-5.82,10-3.51,15.06-5.08,10.15-3,15.28-4.31,10.29-2.49,15.48-3.55,10.39-2,15.62-2.76,10.48-1.45,15.74-2,10.54-.93,15.82-1.19,10.56-.4,15.85-.4,10.57.13,15.86.4,10.55.66,15.81,1.19,10.51,1.19,15.74,2,10.44,1.71,15.63,2.76,10.34,2.24,15.47,3.55,10.23,2.75,15.29,4.31,10.08,3.26,15,5.08,9.92,3.75,14.8,5.82,9.72,4.25,14.5,6.55,9.5,4.73,14.16,7.27,9.27,5.21,13.8,8,9,5.66,13.4,8.65,8.72,6.1,13,9.32,8.41,6.53,12.5,10,8.09,6.94,12,10.56,7.75,7.34,11.48,11.16,7.39,7.72,10.94,11.71,7,8.08,10.36,12.25,6.61,8.42,9.76,12.75,6.19,8.74,9.13,13.23,5.76,9,8.48,13.67,5.33,9.31,7.82,14.07,4.87,9.57,7.13,14.45,4.4,9.8,6.43,14.79,3.92,10,5.7,15.09,3.44,10.2,5,15.36,2.94,10.36,4.23,15.59,2.44,10.49,3.47,15.78,1.94,10.6,2.71,15.94,1.43,10.69,1.94,16.05.91,10.75,1.17,16.14.39,10.77.39,16.17v.47q0,8.08-.39,16.17T815,527.15q-.76,8.05-1.94,16.06t-2.71,15.93q-1.54,7.93-3.47,15.79t-4.23,15.59q-2.31,7.74-5,15.36T792,621q-3,7.47-6.43,14.79t-7.13,14.45q-3.74,7.13-7.82,14.07T762.12,678q-4.41,6.72-9.13,13.22t-9.76,12.75q-5,6.26-10.36,12.25t-10.94,11.72q-5.59,5.72-11.48,11.15t-12,10.57q-6.13,5.13-12.5,9.95t-13,9.31q-6.6,4.5-13.4,8.66t-13.8,8q-7,3.81-14.16,7.27t-14.5,6.56q-7.32,3.09-14.8,5.82t-15,5.07q-7.59,2.35-15.29,4.32t-15.47,3.54q-7.79,1.59-15.63,2.77t-15.74,2q-7.89.79-15.81,1.19t-15.86.4q-7.93,0-15.85-.4t-15.82-1.19q-7.89-.8-15.74-2t-15.62-2.77q-7.79-1.58-15.48-3.54t-15.28-4.32q-7.59-2.34-15.06-5.07t-14.8-5.82q-7.32-3.09-14.49-6.56t-14.17-7.27q-7-3.81-13.8-8T314,768.87q-6.58-4.49-13-9.31t-12.51-9.95q-6.12-5.13-12-10.57T265,727.89q-5.61-5.73-10.94-11.72T243.7,703.92q-5-6.25-9.76-12.75T224.81,678q-4.41-6.74-8.49-13.67t-7.81-14.07q-3.75-7.14-7.13-14.45T195,621q-3-7.47-5.71-15.09t-5-15.36Q182,582.78,180,574.93t-3.48-15.79q-1.55-7.93-2.71-15.93t-1.94-16.06q-.78-8.05-1.17-16.13T170.35,494.85Zm-1.28,0v-.47q0-8.13.39-16.25t1.17-16.2q.78-8.08,2-16.13t2.72-16q1.56-8,3.49-15.85T183,398.28q2.33-7.78,5-15.43t5.73-15.16q3-7.51,6.45-14.86t7.16-14.51q3.75-7.17,7.85-14.14t8.52-13.73q4.42-6.75,9.16-13.28t9.8-12.81q5.06-6.28,10.4-12.31t11-11.77q5.63-5.74,11.53-11.2t12.06-10.62q6.15-5.15,12.55-10t13-9.36q6.61-4.52,13.45-8.69t13.85-8q7-3.84,14.23-7.31t14.55-6.58q7.37-3.12,14.86-5.85t15.11-5.1q7.63-2.35,15.35-4.33t15.54-3.56q7.8-1.59,15.68-2.78t15.81-2q7.92-.79,15.87-1.19t15.92-.4q8,0,15.92.4t15.88,1.19q7.92.79,15.8,2t15.69,2.78q7.82,1.59,15.53,3.56t15.35,4.33q7.62,2.37,15.12,5.1t14.85,5.85q7.36,3.1,14.56,6.58t14.22,7.31q7,3.83,13.85,8t13.46,8.69q6.62,4.51,13,9.36t12.56,10q6.15,5.16,12,10.62t11.53,11.2q5.64,5.75,11,11.77t10.4,12.31q5.06,6.27,9.8,12.81t9.17,13.28q4.42,6.75,8.52,13.73t7.84,14.14q3.76,7.17,7.16,14.51t6.45,14.86q3.06,7.5,5.74,15.16t5,15.43q2.31,7.77,4.25,15.66t3.48,15.85q1.56,8,2.73,16t1.95,16.13q.78,8.08,1.17,16.2t.39,16.25v.47q0,8.13-.39,16.24T816.3,527.3q-.78,8.09-1.95,16.13t-2.73,16q-1.54,8-3.48,15.85T803.89,591q-2.31,7.78-5,15.43t-5.74,15.16q-3,7.51-6.45,14.86t-7.16,14.51q-3.75,7.17-7.84,14.14t-8.52,13.73q-4.43,6.75-9.17,13.28t-9.8,12.81q-5,6.28-10.4,12.3t-11,11.77q-5.62,5.74-11.53,11.21t-12,10.61q-6.16,5.16-12.56,10t-13,9.36q-6.63,4.5-13.46,8.69t-13.85,8q-7,3.82-14.22,7.3t-14.56,6.59q-7.35,3.1-14.85,5.85t-15.12,5.09Q580,814,572.28,816t-15.53,3.56q-7.82,1.58-15.69,2.77t-15.8,2c-5.28.54-10.58.93-15.88,1.2s-10.61.4-15.92.4-10.61-.13-15.92-.4-10.59-.66-15.87-1.2-10.56-1.19-15.81-2-10.48-1.72-15.68-2.77-10.39-2.25-15.54-3.56-10.26-2.76-15.35-4.34-10.11-3.27-15.11-5.09-9.95-3.78-14.86-5.85-9.76-4.27-14.55-6.59-9.55-4.75-14.23-7.3-9.3-5.23-13.85-8-9-5.69-13.45-8.69-8.76-6.13-13-9.36-8.45-6.56-12.55-10-8.13-7-12.06-10.61-7.78-7.38-11.53-11.21-7.41-7.75-11-11.77-7-8.11-10.4-12.3-6.63-8.46-9.8-12.81-6.21-8.78-9.16-13.28-5.79-9.09-8.52-13.73-5.35-9.36-7.85-14.14-4.89-9.62-7.16-14.51-4.42-9.85-6.45-14.86-3.94-10.06-5.73-15.16-3.45-10.24-5-15.43-2.95-10.4-4.24-15.66-2.45-10.54-3.49-15.85-1.94-10.65-2.72-16-1.43-10.74-2-16.13-.91-10.8-1.17-16.21S169.07,500.27,169.07,494.85Z"/></g></g><path class="cls-16" d="M143.23,494.87v-.51q0-8.78.42-17.53t1.26-17.49q.84-8.71,2.11-17.4T150,424.67q1.68-8.61,3.77-17.11t4.59-16.9q2.49-8.39,5.39-16.65t6.18-16.35q3.3-8.12,7-16T184.58,326q4-7.74,8.47-15.26t9.2-14.81q4.77-7.29,9.9-14.34t10.57-13.82Q228.18,261,234,254.46t11.85-12.69q6.07-6.21,12.45-12.09t13-11.46q6.64-5.55,13.55-10.78t14.05-10.1q7.15-4.87,14.52-9.38t15-8.64q7.59-4.14,15.36-7.88t15.71-7.11q7.95-3.36,16-6.31t16.32-5.5q8.22-2.55,16.57-4.67T425.12,144q8.43-1.71,16.94-3t17.06-2.15q8.55-.86,17.14-1.29t17.18-.43q8.6,0,17.19.43t17.14,1.29q8.55.85,17.06,2.15t16.94,3q8.43,1.71,16.77,3.85t16.57,4.67q8.22,2.55,16.32,5.5t16,6.31q7.93,3.36,15.71,7.11t15.35,7.88q7.59,4.14,15,8.64T688,197.34q7.15,4.88,14.06,10.1t13.55,10.78q6.64,5.57,13,11.46t12.45,12.09q6.09,6.19,11.86,12.69t11.22,13.28q5.46,6.78,10.58,13.82t9.9,14.34q4.77,7.29,9.19,14.81T802.31,326q4.05,7.72,7.73,15.66t7,16q3.29,8.1,6.19,16.35t5.39,16.65q2.49,8.4,4.58,16.9t3.77,17.11q1.68,8.59,2.94,17.27t2.1,17.4q.85,8.73,1.27,17.49t.42,17.53v.51q0,8.76-.42,17.53T842,529.88q-.84,8.73-2.1,17.4t-2.94,17.28q-1.68,8.6-3.77,17.11t-4.58,16.89q-2.49,8.4-5.39,16.65T817,631.57q-3.29,8.1-7,16t-7.73,15.66q-4,7.74-8.48,15.26t-9.19,14.81q-4.78,7.29-9.9,14.33t-10.58,13.82q-5.45,6.78-11.22,13.28t-11.86,12.7q-6.08,6.19-12.45,12.09t-13,11.45q-6.64,5.57-13.55,10.79T688,791.88q-7.14,4.88-14.52,9.39t-15,8.64Q651,814,643.18,817.79t-15.71,7.11q-8,3.35-16,6.31t-16.32,5.5q-8.24,2.53-16.57,4.67t-16.77,3.84q-8.43,1.71-16.94,3t-17.06,2.15q-8.55.86-17.14,1.29t-17.19.43q-8.6,0-17.18-.43t-17.14-1.29q-8.56-.87-17.06-2.15t-16.94-3q-8.43-1.71-16.77-3.84t-16.57-4.67q-8.22-2.55-16.32-5.5t-16-6.31q-7.95-3.36-15.71-7.11t-15.36-7.88q-7.58-4.14-15-8.64t-14.52-9.39q-7.14-4.86-14.05-10.09T271.27,771q-6.64-5.57-13-11.45T245.8,747.46q-6.08-6.19-11.85-12.7t-11.23-13.28q-5.46-6.76-10.57-13.82t-9.9-14.33q-4.78-7.29-9.2-14.81t-8.47-15.26q-4.05-7.74-7.73-15.66t-7-16q-3.28-8.1-6.18-16.36t-5.39-16.65q-2.51-8.38-4.59-16.89T150,564.56Q148.29,556,147,547.28t-2.11-17.4q-.84-8.73-1.26-17.48T143.23,494.87Zm-1.4,0v-.51q0-8.82.42-17.61t1.27-17.56q.85-8.78,2.12-17.48t3-17.36q1.68-8.64,3.78-17.18t4.6-17q2.5-8.43,5.41-16.72T168.59,357q3.32-8.15,7-16.1t7.76-15.74q4.07-7.77,8.5-15.32T201.09,295q4.78-7.32,9.93-14.4t10.62-13.89q5.48-6.81,11.27-13.33t11.9-12.76q6.1-6.23,12.5-12.14T270.38,217q6.67-5.58,13.61-10.83T298.1,196q7.17-4.91,14.58-9.43t15-8.68q7.62-4.15,15.42-7.92t15.78-7.13q8-3.37,16.1-6.34T391.37,151q8.26-2.55,16.64-4.69t16.84-3.86q8.46-1.72,17-3T459,137.25q8.59-.87,17.21-1.3t17.25-.43q8.64,0,17.26.43t17.21,1.3q8.58.87,17.13,2.16t17,3q8.46,1.71,16.84,3.86T595.51,151q8.26,2.57,16.39,5.53t16.1,6.34q8,3.36,15.78,7.13t15.41,7.92q7.62,4.16,15,8.68T688.79,196q7.17,4.89,14.11,10.14T716.5,217q6.68,5.59,13.07,11.51t12.5,12.14q6.1,6.23,11.9,12.76t11.27,13.33q5.47,6.81,10.62,13.89T785.8,295q4.8,7.32,9.23,14.88t8.51,15.32q4.07,7.77,7.76,15.74t7,16.1q3.3,8.13,6.21,16.43t5.42,16.72q2.51,8.43,4.6,17t3.78,17.18q1.68,8.64,3,17.36t2.11,17.48q.85,8.76,1.27,17.56t.43,17.61v.51q0,8.81-.43,17.61T843.36,530q-.84,8.78-2.11,17.48t-3,17.35q-1.68,8.64-3.78,17.19t-4.6,17q-2.52,8.43-5.42,16.73t-6.21,16.43q-3.3,8.13-7,16.1T803.54,664q-4.06,7.77-8.51,15.33t-9.23,14.88q-4.8,7.32-9.94,14.4t-10.62,13.88q-5.47,6.81-11.27,13.34t-11.9,12.75q-6.11,6.24-12.5,12.15t-13.07,11.5q-6.66,5.6-13.6,10.84t-14.11,10.14q-7.18,4.89-14.58,9.42t-15,8.68q-7.61,4.15-15.41,7.92T628,826.39q-8,3.38-16.1,6.34t-16.39,5.52q-8.26,2.57-16.63,4.7T562,846.81q-8.46,1.71-17,3T527.91,852q-8.6.85-17.21,1.29t-17.26.43q-8.62,0-17.25-.43T459,852q-8.6-.87-17.13-2.16t-17-3Q416.38,845.09,408,843t-16.64-4.7q-8.25-2.55-16.38-5.52t-16.1-6.34q-8-3.37-15.78-7.14t-15.42-7.92q-7.6-4.16-15-8.68t-14.58-9.42q-7.19-4.89-14.11-10.14t-13.61-10.84q-6.67-5.58-13.07-11.5t-12.5-12.15q-6.09-6.23-11.9-12.75t-11.27-13.34q-5.47-6.81-10.62-13.88t-9.93-14.4q-4.8-7.34-9.24-14.88T183.35,664q-4.07-7.77-7.76-15.73t-7-16.1q-3.3-8.15-6.21-16.43T157,599q-2.5-8.43-4.6-17t-3.78-17.19q-1.69-8.64-3-17.35T143.52,530q-.84-8.76-1.27-17.56T141.83,494.87Z"/></g></svg>