<svg id="Calque_1" data-name="Calque 1" xmlns="http://www.w3.org/2000/svg" viewBox="0 0 256 70"><defs><style>.cls-1{fill:#5977b9;}.cls-2{fill:#f6f6fa;}.cls-3{fill:#2bb270;}</style></defs><circle class="cls-1" cx="11.87" cy="34.4" r="1.42"/><rect class="cls-1" x="15.04" y="24.77" width="3.45" height="10.79" rx="1.66"/><rect class="cls-1" x="15.04" y="37.72" width="3.45" height="6.06" rx="1.68"/><path class="cls-1" d="M24.85,31.72a1.73,1.73,0,0,1-3.45,0V22.27a1.73,1.73,0,0,1,3.45,0Z"/><path class="cls-1" d="M23.13,35.57a1.74,1.74,0,0,1,1.72,1.73v8.91a1.73,1.73,0,1,1-3.45,0V37.3A1.73,1.73,0,0,1,23.13,35.57Z"/><path class="cls-1" d="M29.53,23.23A1.74,1.74,0,0,1,31.25,25V43.54a1.73,1.73,0,0,1-3.45,0V25A1.74,1.74,0,0,1,29.53,23.23Z"/><path class="cls-1" d="M36,40.1a1.74,1.74,0,0,1-1.73-1.73V29.53A1.74,1.74,0,0,1,36,27.8a1.72,1.72,0,0,1,1.72,1.73v8.84A1.73,1.73,0,0,1,36,40.1Z"/><circle class="cls-1" cx="40.85" cy="34.4" r="1.42" transform="translate(-2.02 66.25) rotate(-76.72)"/><circle class="cls-2" cx="11.87" cy="34.4" r="1.42"/><rect class="cls-2" x="15.04" y="24.77" width="3.45" height="10.79" rx="1.66"/><rect class="cls-2" x="15.04" y="37.72" width="3.45" height="6.06" rx="1.68"/><path class="cls-2" d="M24.34,21.05a1.72,1.72,0,0,1,.51,1.22v9.45a1.73,1.73,0,0,1-3.45,0V22.27a1.73,1.73,0,0,1,2.94-1.22Z"/><path class="cls-2" d="M24.34,36.08a1.68,1.68,0,0,1,.51,1.22v8.91a1.73,1.73,0,1,1-3.45,0V37.3a1.73,1.73,0,0,1,1.73-1.73A1.68,1.68,0,0,1,24.34,36.08Z"/><path class="cls-2" d="M30.74,23.74A1.68,1.68,0,0,1,31.25,25V43.54a1.73,1.73,0,0,1-3.45,0V25a1.74,1.74,0,0,1,1.73-1.73A1.68,1.68,0,0,1,30.74,23.74Z"/><path class="cls-2" d="M34.25,38.37V29.53A1.74,1.74,0,0,1,36,27.8a1.72,1.72,0,0,1,1.72,1.73v8.84a1.73,1.73,0,1,1-3.45,0Z"/><circle class="cls-2" cx="40.85" cy="34.4" r="1.42"/><path class="cls-3" d="M54.5,60.21H43.2L39.86,56.7l-6.3-6.63-1.92-2L37.2,42.3l2.74,2.85a17.62,17.62,0,1,0-13.65,6.48c.54,0,1.07,0,1.6-.08L35,59a26.31,26.31,0,1,1,11.12-7.51Z"/><path class="cls-2" d="M109,39.16a16.7,16.7,0,0,1-.45,3.92,15.18,15.18,0,0,1-1.3,3.51,14.27,14.27,0,0,1-4.84,5.4l8.29,8.48h-5a6.58,6.58,0,0,1-2-.28,3.74,3.74,0,0,1-1.59-1l-4.78-5a19.73,19.73,0,0,1-4.88.59,18.6,18.6,0,0,1-6.76-1.18,15.37,15.37,0,0,1-5.23-3.27,14.5,14.5,0,0,1-3.37-5,16.8,16.8,0,0,1,0-12.47,14.5,14.5,0,0,1,3.37-5,15.37,15.37,0,0,1,5.23-3.27,19.85,19.85,0,0,1,13.51,0A15.49,15.49,0,0,1,104.48,28a14.5,14.5,0,0,1,3.37,5A16.17,16.17,0,0,1,109,39.16Zm-6.23,0a13.34,13.34,0,0,0-.71-4.53,9.45,9.45,0,0,0-2-3.4,9,9,0,0,0-3.24-2.14,11.86,11.86,0,0,0-4.3-.74,12,12,0,0,0-4.31.74A9,9,0,0,0,85,31.23a9.63,9.63,0,0,0-2.06,3.4,13.33,13.33,0,0,0-.72,4.53,13.31,13.31,0,0,0,.72,4.52A9.5,9.5,0,0,0,85,47.07a9.14,9.14,0,0,0,3.26,2.13,12,12,0,0,0,4.31.74,11.86,11.86,0,0,0,4.3-.74,9.06,9.06,0,0,0,3.24-2.13,9.32,9.32,0,0,0,2-3.39A13.32,13.32,0,0,0,102.81,39.16Z"/><path class="cls-2" d="M131.32,29.41a1.66,1.66,0,0,1-.58.66,1.5,1.5,0,0,1-.78.19,2,2,0,0,1-1-.33c-.38-.22-.82-.46-1.33-.73a11.4,11.4,0,0,0-1.8-.73,7.91,7.91,0,0,0-2.42-.33,7.52,7.52,0,0,0-2.2.29,4.59,4.59,0,0,0-1.58.79,3.22,3.22,0,0,0-1,1.22,3.78,3.78,0,0,0-.32,1.56,2.59,2.59,0,0,0,.64,1.8A5.21,5.21,0,0,0,120.69,35a16.21,16.21,0,0,0,2.41.92c.9.26,1.83.55,2.77.85s1.86.66,2.76,1.06a9.56,9.56,0,0,1,2.42,1.53,7,7,0,0,1,1.7,2.25,7.42,7.42,0,0,1,.64,3.25,10,10,0,0,1-.75,3.88,8.94,8.94,0,0,1-2.22,3.16A10.42,10.42,0,0,1,126.87,54a14,14,0,0,1-4.81.77,16.44,16.44,0,0,1-3.06-.29,17,17,0,0,1-2.9-.81,15.29,15.29,0,0,1-2.6-1.27,13.51,13.51,0,0,1-2.16-1.65l1.76-2.74a2.42,2.42,0,0,1,.6-.5,1.62,1.62,0,0,1,.78-.2,2.25,2.25,0,0,1,1.22.44c.44.29,1,.61,1.55,1a11.65,11.65,0,0,0,2.09,1,8.63,8.63,0,0,0,2.9.44,6.29,6.29,0,0,0,4-1.15,4,4,0,0,0,1.42-3.32,3,3,0,0,0-.64-2,5.11,5.11,0,0,0-1.7-1.28,13.14,13.14,0,0,0-2.42-.88c-.9-.24-1.82-.5-2.75-.78a27.54,27.54,0,0,1-2.75-1A8.94,8.94,0,0,1,115,38.2a7,7,0,0,1-1.7-2.38,8.56,8.56,0,0,1-.65-3.53,8,8,0,0,1,.71-3.26,8.47,8.47,0,0,1,2.08-2.82,10.49,10.49,0,0,1,3.35-2,13.06,13.06,0,0,1,4.54-.74,16,16,0,0,1,5.32.85,12.1,12.1,0,0,1,4.16,2.37Z"/><path class="cls-2" d="M137.73,54.47V23h5.57v12.1a11.61,11.61,0,0,1,3-2,9.15,9.15,0,0,1,3.81-.74,8.85,8.85,0,0,1,3.37.6,6.58,6.58,0,0,1,2.44,1.7,7.17,7.17,0,0,1,1.49,2.6,10.4,10.4,0,0,1,.51,3.34V54.47h-5.57V40.64a4.45,4.45,0,0,0-1-3.08,3.77,3.77,0,0,0-2.95-1.1,6.12,6.12,0,0,0-2.71.62,9.84,9.84,0,0,0-2.39,1.67V54.47Z"/><path class="cls-2" d="M173,32.4a12.12,12.12,0,0,1,4,.65A8.93,8.93,0,0,1,180.15,35a8.73,8.73,0,0,1,2.08,3.09,11.22,11.22,0,0,1,.74,4.19,8.7,8.7,0,0,1-.05,1,1.5,1.5,0,0,1-.21.62.82.82,0,0,1-.39.32,1.91,1.91,0,0,1-.63.09H167.38a7.15,7.15,0,0,0,1.92,4.91,6.16,6.16,0,0,0,4.42,1.57,8.5,8.5,0,0,0,2.34-.29,11.78,11.78,0,0,0,1.71-.66q.73-.36,1.29-.66a2.21,2.21,0,0,1,1.07-.29,1.38,1.38,0,0,1,.59.12,1.44,1.44,0,0,1,.42.36l1.63,1.91a8.86,8.86,0,0,1-2.08,1.7,12.13,12.13,0,0,1-2.4,1.11,14,14,0,0,1-2.55.58,20,20,0,0,1-2.52.17,13.14,13.14,0,0,1-4.49-.75,10,10,0,0,1-6-5.87,13.29,13.29,0,0,1-.88-5,11.46,11.46,0,0,1,.76-4.19,10.26,10.26,0,0,1,2.2-3.41,10.53,10.53,0,0,1,3.5-2.29A12.09,12.09,0,0,1,173,32.4Zm.12,3.75a5.37,5.37,0,0,0-3.82,1.29,6.21,6.21,0,0,0-1.76,3.66H178a6.31,6.31,0,0,0-.29-1.91,4.49,4.49,0,0,0-.9-1.58,4.3,4.3,0,0,0-1.54-1.07A5.52,5.52,0,0,0,173.07,36.15Z"/><path class="cls-2" d="M197.08,32.4a12.12,12.12,0,0,1,4,.65A9,9,0,0,1,204.28,35a8.71,8.71,0,0,1,2.07,3.09,11,11,0,0,1,.75,4.19,6.66,6.66,0,0,1-.06,1,1.51,1.51,0,0,1-.2.62.84.84,0,0,1-.4.32,1.83,1.83,0,0,1-.63.09H191.5a7.25,7.25,0,0,0,1.92,4.91,6.19,6.19,0,0,0,4.42,1.57,8.4,8.4,0,0,0,2.34-.29,11.93,11.93,0,0,0,1.72-.66l1.28-.66a2.24,2.24,0,0,1,1.07-.29,1.18,1.18,0,0,1,1,.48l1.62,1.91a8.62,8.62,0,0,1-2.07,1.7,12.4,12.4,0,0,1-2.4,1.11,14.15,14.15,0,0,1-2.56.58,19.85,19.85,0,0,1-2.51.17,13.1,13.1,0,0,1-4.49-.75,10.07,10.07,0,0,1-3.61-2.23,10.27,10.27,0,0,1-2.42-3.64,13.48,13.48,0,0,1-.88-5,11.46,11.46,0,0,1,.77-4.19,10,10,0,0,1,2.2-3.41,10.43,10.43,0,0,1,3.5-2.29A12.06,12.06,0,0,1,197.08,32.4Zm.11,3.75a5.34,5.34,0,0,0-3.81,1.29,6.15,6.15,0,0,0-1.76,3.66h10.47a6,6,0,0,0-.3-1.91,4.2,4.2,0,0,0-.9-1.58,4.26,4.26,0,0,0-1.53-1.07A5.57,5.57,0,0,0,197.19,36.15Z"/><path class="cls-2" d="M219.24,54.81a6.32,6.32,0,0,1-4.63-1.6A5.94,5.94,0,0,1,213,48.79V36.66h-2.35a1.2,1.2,0,0,1-.78-.28,1,1,0,0,1-.33-.83V33.48l3.73-.57L214.43,27a1,1,0,0,1,.42-.66,1.35,1.35,0,0,1,.82-.23h2.89v6.84h6.09v3.73h-6.09V48.43A2.22,2.22,0,0,0,219.1,50a1.91,1.91,0,0,0,1.45.57,2.79,2.79,0,0,0,.87-.11,5.13,5.13,0,0,0,.61-.25l.46-.24a.77.77,0,0,1,.4-.12.65.65,0,0,1,.41.12,1.63,1.63,0,0,1,.34.35l1.67,2.54a8.45,8.45,0,0,1-2.8,1.44A10.84,10.84,0,0,1,219.24,54.81Z"/><path class="cls-2" d="M242.84,37a1.35,1.35,0,0,1-.47.48,1.33,1.33,0,0,1-.63.14,2.12,2.12,0,0,1-.87-.21l-1.07-.48a9.77,9.77,0,0,0-1.39-.48,7.11,7.11,0,0,0-1.84-.21,4.51,4.51,0,0,0-2.6.66,2,2,0,0,0-.94,1.71,1.6,1.6,0,0,0,.48,1.18,4.24,4.24,0,0,0,1.29.84,12.79,12.79,0,0,0,1.82.64q1,.28,2.07.63a21.57,21.57,0,0,1,2.08.77,7.48,7.48,0,0,1,1.81,1.1,5.12,5.12,0,0,1,1.29,1.6,4.86,4.86,0,0,1,.49,2.25,6.93,6.93,0,0,1-.61,2.89A6.47,6.47,0,0,1,242,52.77a8.55,8.55,0,0,1-2.9,1.5,13.26,13.26,0,0,1-4,.54,13.83,13.83,0,0,1-2.33-.2,15.26,15.26,0,0,1-2.19-.56,12.75,12.75,0,0,1-1.94-.85,9,9,0,0,1-1.57-1.06l1.29-2a1.78,1.78,0,0,1,.58-.55,1.71,1.71,0,0,1,.86-.19,1.9,1.9,0,0,1,1,.27c.31.19.67.38,1.07.6a10,10,0,0,0,1.44.59,6.73,6.73,0,0,0,2.08.27,5.73,5.73,0,0,0,1.71-.22,3.76,3.76,0,0,0,1.17-.58,2.17,2.17,0,0,0,.68-.84,2.37,2.37,0,0,0,.21-1,1.7,1.7,0,0,0-.48-1.25,4.32,4.32,0,0,0-1.29-.85,12.51,12.51,0,0,0-1.83-.64c-.68-.2-1.38-.4-2.1-.63a21.89,21.89,0,0,1-2.09-.79,7.13,7.13,0,0,1-1.83-1.16,5.12,5.12,0,0,1-1.29-1.71,5.74,5.74,0,0,1-.48-2.46,5.85,5.85,0,0,1,.56-2.54A6,6,0,0,1,230,34.38a8.4,8.4,0,0,1,2.73-1.44,12.05,12.05,0,0,1,3.78-.54,12.29,12.29,0,0,1,4.35.74,9.89,9.89,0,0,1,3.28,2Z"/><path class="cls-3" d="M247.49,51.59a3.15,3.15,0,0,1,.26-1.25,3.2,3.2,0,0,1,.72-1,3.49,3.49,0,0,1,1.1-.67,3.57,3.57,0,0,1,1.35-.26,3.5,3.5,0,0,1,1.33.26,3.14,3.14,0,0,1,1.81,1.69,3.05,3.05,0,0,1,0,2.51,3.11,3.11,0,0,1-1.81,1.67,3.5,3.5,0,0,1-1.33.25,3.56,3.56,0,0,1-1.35-.25,3.47,3.47,0,0,1-1.1-.66,3.16,3.16,0,0,1-.72-1A3.12,3.12,0,0,1,247.49,51.59Z"/></svg>