<svg id="Calque_1" data-name="Calque 1" xmlns="http://www.w3.org/2000/svg" viewBox="0 0 256 70"><defs><style>.cls-1{fill:#f6f6fa;}.cls-2{fill:#2bb270;}</style></defs><path class="cls-1" d="M48.78,33.75a23.88,23.88,0,0,1-.63,5.54,22.23,22.23,0,0,1-1.83,4.94,20.83,20.83,0,0,1-2.92,4.23,20.54,20.54,0,0,1-3.91,3.39L51.17,63.79H44.1a9.42,9.42,0,0,1-2.75-.38A5.44,5.44,0,0,1,39.11,62l-6.75-7a25.94,25.94,0,0,1-3.32.63,29.08,29.08,0,0,1-3.55.21A26.23,26.23,0,0,1,16,54.16a21.55,21.55,0,0,1-7.38-4.61,20.51,20.51,0,0,1-4.76-7,22.54,22.54,0,0,1-1.69-8.79A22.55,22.55,0,0,1,3.82,25a20.61,20.61,0,0,1,4.76-7A21.7,21.7,0,0,1,16,13.33a26.44,26.44,0,0,1,9.53-1.66A25.88,25.88,0,0,1,35,13.35,21.72,21.72,0,0,1,42.35,18a20.59,20.59,0,0,1,4.75,7A22.73,22.73,0,0,1,48.78,33.75Zm-8.78,0a18.94,18.94,0,0,0-1-6.38,13.44,13.44,0,0,0-2.88-4.8,12.53,12.53,0,0,0-4.57-3,16.53,16.53,0,0,0-6.06-1,16.68,16.68,0,0,0-6.08,1,12.73,12.73,0,0,0-4.6,3,13.5,13.5,0,0,0-2.91,4.8,18.69,18.69,0,0,0-1,6.38,18.63,18.63,0,0,0,1,6.37,13.24,13.24,0,0,0,2.91,4.78,12.58,12.58,0,0,0,4.6,3A16.68,16.68,0,0,0,25.49,49a16.53,16.53,0,0,0,6.06-1.05,12.38,12.38,0,0,0,4.57-3A13.18,13.18,0,0,0,39,40.12,18.88,18.88,0,0,0,40,33.75Z"/><path class="cls-1" d="M80.19,20a2.25,2.25,0,0,1-.81.92,2.14,2.14,0,0,1-1.1.27,2.9,2.9,0,0,1-1.43-.46c-.53-.31-1.16-.65-1.88-1a15.61,15.61,0,0,0-2.53-1A11.17,11.17,0,0,0,69,18.21a10.58,10.58,0,0,0-3.1.41,6.67,6.67,0,0,0-2.23,1.12,4.45,4.45,0,0,0-1.35,1.71,5.31,5.31,0,0,0-.45,2.2,3.69,3.69,0,0,0,.91,2.54,7.53,7.53,0,0,0,2.4,1.73,23,23,0,0,0,3.41,1.29c1.27.37,2.57.78,3.89,1.21a36,36,0,0,1,3.9,1.49,13.51,13.51,0,0,1,3.41,2.15,9.89,9.89,0,0,1,2.4,3.18,10.55,10.55,0,0,1,.91,4.57,14.09,14.09,0,0,1-1.07,5.48,12.56,12.56,0,0,1-3.12,4.45,14.84,14.84,0,0,1-5,3,19.44,19.44,0,0,1-6.78,1.09,23.94,23.94,0,0,1-4.32-.4,24.41,24.41,0,0,1-4.09-1.15,21.46,21.46,0,0,1-3.66-1.8,17.09,17.09,0,0,1-3-2.33l2.48-3.85a3,3,0,0,1,.84-.7,2.18,2.18,0,0,1,1.1-.29,3.18,3.18,0,0,1,1.72.62c.62.41,1.34.86,2.18,1.36a17.85,17.85,0,0,0,3,1.36,12.32,12.32,0,0,0,4.09.61,8.71,8.71,0,0,0,5.66-1.63,5.67,5.67,0,0,0,2-4.67,4.17,4.17,0,0,0-.91-2.78,7.37,7.37,0,0,0-2.4-1.81,18.83,18.83,0,0,0-3.41-1.24c-1.27-.34-2.56-.71-3.88-1.1a34.14,34.14,0,0,1-3.88-1.44,12.72,12.72,0,0,1-3.41-2.18A10,10,0,0,1,54.78,29a12.16,12.16,0,0,1-.91-5,11.13,11.13,0,0,1,1-4.6,11.68,11.68,0,0,1,2.92-4,14.64,14.64,0,0,1,4.73-2.78,18.14,18.14,0,0,1,6.39-1.05,22.62,22.62,0,0,1,7.51,1.2,17,17,0,0,1,5.86,3.34Z"/><path class="cls-1" d="M89.23,55.34V11h7.86V28a16.82,16.82,0,0,1,4.2-2.75,12.93,12.93,0,0,1,5.37-1,12.35,12.35,0,0,1,4.75.85,9.37,9.37,0,0,1,3.45,2.39,10.37,10.37,0,0,1,2.1,3.67,14.68,14.68,0,0,1,.71,4.71v19.5h-7.86V35.84a6.29,6.29,0,0,0-1.38-4.35A5.32,5.32,0,0,0,104.28,30a8.59,8.59,0,0,0-3.82.87,13.55,13.55,0,0,0-3.37,2.36V55.34Z"/><path class="cls-1" d="M138.9,24.22a17,17,0,0,1,5.68.92,12.51,12.51,0,0,1,4.47,2.71A12.28,12.28,0,0,1,152,32.21a15.56,15.56,0,0,1,1.05,5.9A10.64,10.64,0,0,1,153,39.5a2.22,2.22,0,0,1-.29.86,1.13,1.13,0,0,1-.56.45,2.5,2.5,0,0,1-.89.13H131q.35,4.73,2.7,6.93A8.72,8.72,0,0,0,140,50.08a11.41,11.41,0,0,0,3.29-.41,15.74,15.74,0,0,0,2.42-.93c.69-.34,1.3-.65,1.82-.93A3.27,3.27,0,0,1,149,47.4a1.74,1.74,0,0,1,.82.18,1.63,1.63,0,0,1,.61.5l2.29,2.69a12.94,12.94,0,0,1-2.93,2.41,17.27,17.27,0,0,1-3.39,1.55,19.25,19.25,0,0,1-3.59.82,27.26,27.26,0,0,1-3.55.24A18.36,18.36,0,0,1,133,54.73a14.24,14.24,0,0,1-5.09-3.14,14.5,14.5,0,0,1-3.41-5.13,18.79,18.79,0,0,1-1.24-7.1,16.06,16.06,0,0,1,1.08-5.9,14.09,14.09,0,0,1,3.11-4.81,14.69,14.69,0,0,1,4.93-3.24A17.29,17.29,0,0,1,138.9,24.22Zm.16,5.28a7.53,7.53,0,0,0-5.38,1.83,8.74,8.74,0,0,0-2.48,5.16H146a8.87,8.87,0,0,0-.41-2.7,5.92,5.92,0,0,0-3.44-3.73A7.76,7.76,0,0,0,139.06,29.5Z"/><path class="cls-1" d="M172.92,24.22a16.9,16.9,0,0,1,5.67.92,12.64,12.64,0,0,1,4.48,2.71A12.25,12.25,0,0,1,186,32.21a15.56,15.56,0,0,1,1,5.9A9.13,9.13,0,0,1,187,39.5a2.07,2.07,0,0,1-.28.86,1.18,1.18,0,0,1-.56.45,2.5,2.5,0,0,1-.89.13H165.06q.34,4.73,2.7,6.93A8.72,8.72,0,0,0,174,50.08a11.41,11.41,0,0,0,3.29-.41,16.15,16.15,0,0,0,2.42-.93c.69-.34,1.29-.65,1.81-.93A3.3,3.3,0,0,1,183,47.4a1.78,1.78,0,0,1,.83.18,1.71,1.71,0,0,1,.61.5l2.29,2.69a12.94,12.94,0,0,1-2.93,2.41,17.27,17.27,0,0,1-3.39,1.55,19.53,19.53,0,0,1-3.6.82,27.23,27.23,0,0,1-3.54.24A18.46,18.46,0,0,1,167,54.73a14.33,14.33,0,0,1-5.09-3.14,14.62,14.62,0,0,1-3.4-5.13,18.79,18.79,0,0,1-1.24-7.1,16.06,16.06,0,0,1,1.08-5.9,14.07,14.07,0,0,1,3.1-4.81,14.79,14.79,0,0,1,4.93-3.24A17.38,17.38,0,0,1,172.92,24.22Zm.15,5.28a7.5,7.5,0,0,0-5.37,1.83,8.75,8.75,0,0,0-2.49,5.16H180a8.87,8.87,0,0,0-.41-2.7,6,6,0,0,0-3.44-3.73A7.77,7.77,0,0,0,173.07,29.5Z"/><path class="cls-1" d="M204.16,55.82a8.88,8.88,0,0,1-6.52-2.26,8.32,8.32,0,0,1-2.29-6.22V30.22H192a1.66,1.66,0,0,1-1.1-.39,1.42,1.42,0,0,1-.46-1.16V25.74l5.25-.81,1.66-8.36a1.42,1.42,0,0,1,.58-.92,2,2,0,0,1,1.17-.33h4.07V25h8.59v5.26h-8.59V46.83a3.14,3.14,0,0,0,.76,2.24,2.67,2.67,0,0,0,2,.81,3.86,3.86,0,0,0,1.22-.17,6.7,6.7,0,0,0,.86-.34c.25-.12.46-.24.66-.35a1.12,1.12,0,0,1,.57-.16.94.94,0,0,1,.57.16,2.58,2.58,0,0,1,.48.5l2.35,3.58a12.07,12.07,0,0,1-3.94,2A15.57,15.57,0,0,1,204.16,55.82Z"/><path class="cls-1" d="M237.45,30.67a2,2,0,0,1-.67.67,1.8,1.8,0,0,1-.89.2,3,3,0,0,1-1.23-.3l-1.51-.68a15.38,15.38,0,0,0-2-.67,9.86,9.86,0,0,0-2.59-.3,6.31,6.31,0,0,0-3.66.93,2.82,2.82,0,0,0-1.33,2.42,2.22,2.22,0,0,0,.68,1.66,6.44,6.44,0,0,0,1.81,1.18,18.65,18.65,0,0,0,2.57.91c1,.27,1.92.56,2.92.88s2,.68,2.93,1.09a10.28,10.28,0,0,1,2.56,1.55,7.41,7.41,0,0,1,1.82,2.26,6.83,6.83,0,0,1,.68,3.16,9.65,9.65,0,0,1-.86,4.08,9,9,0,0,1-2.51,3.23,12.26,12.26,0,0,1-4.09,2.12,19,19,0,0,1-5.59.76,19.83,19.83,0,0,1-3.29-.28,20.58,20.58,0,0,1-3.09-.8,16.53,16.53,0,0,1-2.73-1.19,13.51,13.51,0,0,1-2.21-1.49L217,49.25a2.46,2.46,0,0,1,.83-.78,2.39,2.39,0,0,1,1.2-.27,2.68,2.68,0,0,1,1.39.39c.43.26.94.54,1.51.84a14,14,0,0,0,2,.83,9.45,9.45,0,0,0,2.95.39,8.08,8.08,0,0,0,2.4-.31,5.09,5.09,0,0,0,1.65-.82,3.24,3.24,0,0,0,1-1.18,3.38,3.38,0,0,0,.3-1.39,2.36,2.36,0,0,0-.69-1.76,5.94,5.94,0,0,0-1.81-1.2,17.9,17.9,0,0,0-2.58-.91c-1-.27-2-.56-3-.88a29.44,29.44,0,0,1-3-1.12,10.12,10.12,0,0,1-2.57-1.63A7.35,7.35,0,0,1,216.84,37a8.05,8.05,0,0,1-.68-3.46A8.26,8.26,0,0,1,217,30a8.38,8.38,0,0,1,2.33-3,11.9,11.9,0,0,1,3.85-2,17,17,0,0,1,5.33-.76,17.48,17.48,0,0,1,6.15,1A14.19,14.19,0,0,1,239.23,28Z"/><path class="cls-2" d="M244,51.28a4.21,4.21,0,0,1,.37-1.76,4.11,4.11,0,0,1,1-1.44,5.16,5.16,0,0,1,5.33-.95,4.78,4.78,0,0,1,1.52.95,4.38,4.38,0,0,1,1,1.44,4.31,4.31,0,0,1,0,3.54,4.36,4.36,0,0,1-1,1.41,4.61,4.61,0,0,1-1.52,1,5.45,5.45,0,0,1-3.79,0,4.81,4.81,0,0,1-1.54-1,4.09,4.09,0,0,1-1-1.41A4.24,4.24,0,0,1,244,51.28Z"/></svg>