<svg id="Calque_1" data-name="Calque 1" xmlns="http://www.w3.org/2000/svg" viewBox="0 0 164 60"><defs><style>.cls-1{fill:#789683;}.cls-2{fill:#9fb5a8;}</style></defs><path class="cls-1" d="M52.86,28a.55.55,0,0,1-.36.26,11.39,11.39,0,0,1-2.12-.05c-.1-.05-.17-.19-.23-.28l-.08-6-.47.1-3.41,2.39L42.57,22l-.26.16V28c0,.08-.25.24-.36.26a12.42,12.42,0,0,1-2.22-.05.64.64,0,0,1-.19-.33l0-13.46.3-.09,5.91,5.46c.5.54,1.18-.29,1.6-.67,1.77-1.56,3.42-3.3,5.24-4.79l.24.14Z"/><path class="cls-1" d="M13.41,28.28c-.43-.34-.16-.68-.15-1.08.05-4.1,0-8.2,0-12.3,0-.41.22-.43.56-.47,1.79-.17,5.85-.14,7.46.52,5.17,2.13,5.17,10.9-.13,12.89a9.2,9.2,0,0,1-1.53.44ZM16.32,17a.61.61,0,0,0-.38.54,34.36,34.36,0,0,0,.11,4.76,14.62,14.62,0,0,0,0,3,.49.49,0,0,0,.48.34c4.07.55,6.52-1.38,5.72-5.6A3.56,3.56,0,0,0,18.58,17,14.11,14.11,0,0,0,16.32,17Z"/><path class="cls-1" d="M76.75,45.38a.57.57,0,0,1-.36.25,13.48,13.48,0,0,1-2.22,0,.67.67,0,0,1-.19-.34V32.18l.34-.39c1.91.13,4-.16,5.9,0,3.78.33,5.25,5.09,3,7.9-.26.33-1.44,1.22-1.45,1.45.74,1.55,2.06,2.76,2.9,4.24l-.16.26H81.77c-.54,0-2.53-3.57-3.06-4.08-.27-.25-2-.26-2,.1Zm.28-11a.41.41,0,0,0-.23.18,34,34,0,0,0,0,3.68c0,.37.22.42.57.46a10.62,10.62,0,0,0,3.05-.16c1.67-.67,1.51-3.9-.47-4.17A18.28,18.28,0,0,0,77,34.4Z"/><path class="cls-2" d="M121.8,16c3.5,3.13,2.7,9.45-1.42,11.67a6.86,6.86,0,0,1-9.84-4.19C108.56,16.73,116.27,11.08,121.8,16Zm-1.86,8.59c3-3.22.28-9-4-7.57-3,1-3.76,4.92-1.88,7.3A3.92,3.92,0,0,0,119.94,24.62Z"/><path class="cls-1" d="M119.88,38.1v7.28c0,.08-.25.23-.36.25a8.83,8.83,0,0,1-2.26-.09c-.1-.06-.12-.18-.15-.28l0-13.11.11-.56c.32,0,.56.23.78.41,2.29,1.87,4.42,4.64,6.67,6.67a7.27,7.27,0,0,1,1,.87l.26-.15V32.16a1,1,0,0,1,.21-.31c.37-.05,2.58-.22,2.58.2V45.69l-.26.16c-2.5-2-4.68-4.62-7.08-6.77C120.94,38.72,120.37,38.1,119.88,38.1Z"/><path class="cls-1" d="M79.86,20.74V28c0,.08-.25.24-.37.26a12.42,12.42,0,0,1-2.22-.05.57.57,0,0,1-.18-.33l0-13,.11-.56.31,0,8.12,7.91.25-.15V14.7a4.27,4.27,0,0,1,2.49-.21,1.26,1.26,0,0,1,.2.21V28.33l-.25.16-8-7.65Z"/><path class="cls-2" d="M96.2,14.34c.17-.18,1,.68,1.19.82,2.37,2.19,4.6,4.61,7,6.81l.53.22V14.8a1.11,1.11,0,0,1,.34-.28c.32-.14,2.35-.2,2.35.18V28.39l-.47-.1c-2.72-2.49-5.22-5.2-8-7.61l-.21.11v7.13c0,.3-.45.35-.67.37s-2,.09-2-.27Z"/><path class="cls-2" d="M149.93,26.9c-1.68,2.09-5.53,1.87-7.76.87-.45-.21-2-1-2-1.5a4.92,4.92,0,0,1,1.33-2,17.06,17.06,0,0,1,2.21,1.12c1.17.44,3.67.8,4.29-.61.46-1.07-.5-1.7-1.4-2-2.42-.7-6.09-.59-6.42-4-.39-3.93,3.65-5.17,6.83-4.46.61.14,2.78,1,3,1.53.17.36-.52,1.28-.78,1.59-1,1.15-1.14.16-2.22-.25s-3.35-.73-4,.48c-.46.9.13,1.36.88,1.67,1.6.67,3.59.54,5.14,1.48A4.21,4.21,0,0,1,149.93,26.9Z"/><path class="cls-1" d="M113.93,31.79c.36.11.3,1.77.25,2.12s-.24.44-.66.47c-1.77.15-4-.24-5.69,0-.14,0-.46.13-.46.27v2.58l.15.15h3.73c.67,0,.67,2.69,0,2.69h-3.73a3.34,3.34,0,0,0,.11,3h6.3c.36,0,.31,1.79.26,2.12a.74.74,0,0,1-.26.47h-9.1a1,1,0,0,1-.2-.21V32a1,1,0,0,1,.2-.21Z"/><path class="cls-1" d="M30.58,22.7a1,1,0,0,0-.32.21c0,.45-.19,2.47.1,2.7.46.36,5.51-.13,6.45.16.34.15.37,2.2,0,2.51h-9.1a1,1,0,0,1-.21-.21l0-13.49,9.15-.12c.58.17.51,2.14.12,2.56H30.47a.81.81,0,0,0-.2.21,14.06,14.06,0,0,0-.05,2.53c0,.11.17.36.25.36h3.72c.19,0,.25.41.27.56,0,.33.08,2-.27,2C33.16,22.85,31.54,22.5,30.58,22.7Z"/><path class="cls-1" d="M40.66,45.38a.56.56,0,0,1-.37.25,13.48,13.48,0,0,1-2.22,0,.59.59,0,0,1-.18-.34l0-12.79.13-.54a1.16,1.16,0,0,1,.54-.13c1.57-.13,5.38-.16,6.75.4,4.16,1.7,3.88,8.24-.67,9.28a34.62,34.62,0,0,1-3.48.15c-.18,0-.47.14-.47.35Zm.13-10.88a1.06,1.06,0,0,0-.14.54,24.52,24.52,0,0,0,0,3.32c0,.39.05.51.47.57a20,20,0,0,0,2.79,0c2.08-.33,2.08-4.21-.42-4.53A10.25,10.25,0,0,0,40.79,34.5Z"/><path class="cls-1" d="M53,45.38a.59.59,0,0,1-.37.25,10.69,10.69,0,0,1-2,0c-.26,0-.37-.25-.44-.48l0-12.69a.59.59,0,0,1,.57-.67c2.39.22,5.25-.55,7.4.67C62.06,34.7,61,41,56.4,41.58c-.68.09-2.88-.11-3.26.12A.81.81,0,0,0,53,42Zm.12-10.88A1.16,1.16,0,0,0,53,35a23,23,0,0,0,0,3.42.59.59,0,0,0,.57.57,10.26,10.26,0,0,0,3.15-.27c1.51-.7,1.41-3.49-.16-4.17C56,34.38,53.4,34.2,53.09,34.5Z"/><path class="cls-2" d="M126.6,14.7c.11-.36,1.86-.3,2.22-.25s.44.24.48.66c.21,2.5-.23,5.34,0,7.85a3,3,0,0,0,3.77,2.94,3.2,3.2,0,0,0,2.23-2.73V14.7c.27-.4,2.37-.32,2.56-.13l.12.34c-.24,4.76,1.8,13.74-5.62,13.69-2.71,0-5.75-2.09-5.75-5Z"/><path class="cls-1" d="M33.37,45.64c-.57-.13-.87-1.9-1.37-2l-5.61,0c-.45.22-.91,2-1.3,2H22.61c-.05,0-.17-.18-.16-.26,1.8-3.85,3.62-7.73,5.5-11.56a21.93,21.93,0,0,1,1-2c.23-.34.33-.34.56,0s.53,1.07.76,1.52c1.7,3.44,3.37,6.93,5,10.4.12.27.69,1.4.72,1.56s0,.34-.14.34Zm-4-8h-.28c-.33.93-.92,1.83-1.23,2.75-.09.25-.22.52.15.63a16.85,16.85,0,0,0,2.36,0c.12,0,.21,0,.24-.17C30.8,40.25,29.52,38.28,29.37,37.59Z"/><path class="cls-1" d="M68.48,28.28H65.74c-.54-.47-.61-1.78-1.31-2s-.88,0-1.38,0c-1.4,0-2.81,0-4.22,0-.44.13-.63,1.68-1.16,1.94H55.09a.29.29,0,0,1-.16-.25c1.74-3.54,3.36-7.16,5.12-10.7a25.73,25.73,0,0,1,1.41-2.83c.07-.09.11-.18.24-.17l.27.16c1.89,4.14,4.1,8.16,6,12.31A4.62,4.62,0,0,1,68.48,28.28Zm-8.12-4.65h2.69c.3,0,0-.59,0-.72-.3-.86-.84-1.71-1.14-2.58l-.31-.11c-.23.86-1.26,2.28-1.38,3.08C60.2,23.43,60.23,23.59,60.36,23.63Z"/><path class="cls-1" d="M72.82,45.64H70.19l-1.26-2-5.47,0c-.54.07-.76,1.22-1,1.65a2.87,2.87,0,0,1-.4.43H59.53c-.05,0-.17-.18-.16-.26,1.66-3.5,3.28-7,5-10.52a33.09,33.09,0,0,1,1.51-3c.23-.34.34-.34.56,0s.56,1.12.79,1.59c1.66,3.35,3.29,6.74,4.86,10.12C72.15,43.68,73.11,45.64,72.82,45.64Zm-8-4.65a22.15,22.15,0,0,0,2.58,0,.71.71,0,0,0,.24-.27,20.07,20.07,0,0,0-1-2.45c-.16-.33-.36-1.1-.73-.45a23,23,0,0,0-1.17,2.55C64.65,40.54,64.58,40.92,64.81,41Z"/><path class="cls-1" d="M85.7,31.79h9.62c.05,0,.19.21.23.29a5.93,5.93,0,0,1,0,1.93c0,.12-.17.37-.25.37h-3.1a1.6,1.6,0,0,0-.26.26V45.38a.81.81,0,0,1-.21.2,11.59,11.59,0,0,1-2.22.06.34.34,0,0,1-.29-.23l-.1-10.75a.39.39,0,0,0-.34-.28c-.65-.12-2.72.18-3.11-.1S85.38,31.79,85.7,31.79Z"/><path class="cls-1" d="M140.31,31.79c.39.12.32,2.11.13,2.46s-2.53,0-3.13.13a.39.39,0,0,0-.34.28l-.09,10.75c-.14.32-1.77.27-2.16.23-.16,0-.57-.08-.57-.26V34.74c0-.22-.29-.33-.47-.35-1-.14-2.16.18-3.12-.14-.19-.19-.27-2.18.13-2.46Z"/><path class="cls-1" d="M73.55,28c0,.11-.25.24-.37.26a14.16,14.16,0,0,1-2.06,0c-.32-.05-.36-.39-.37-.66l0-12.8a.46.46,0,0,1,.15-.29,9.22,9.22,0,0,1,2.25-.09c.12,0,.37.18.37.26Z"/><path class="cls-1" d="M98.27,32.05c0-.1.24-.23.36-.25a12.82,12.82,0,0,1,2,0c.26.05.37.25.45.48l0,12.69a.6.6,0,0,1-.47.66,10.69,10.69,0,0,1-2,0c-.11,0-.36-.17-.36-.25Z"/></svg>