<svg id="Calque_1" data-name="Calque 1" xmlns="http://www.w3.org/2000/svg" viewBox="0 0 164 60"><defs><style>.cls-1{fill:#9fb5a8;}.cls-2{fill:#789683;}</style></defs><path class="cls-1" d="M93.83,11.19l1.16.45a4.56,4.56,0,0,1,2.42,3.58c-.17,3.29.23,6.82,0,10.08-.12,1.71-1.89,4-3.7,4H78.38V11.19ZM81.76,26.3a3.72,3.72,0,0,1,1.41,0c2.51.06,5.15,0,7.65-.07.72,0,2,.16,2.55-.22a1.69,1.69,0,0,0,.73-1.4c.23-2.86-.17-6,0-8.9a2.25,2.25,0,0,0-.44-1,3.15,3.15,0,0,0-.9-.48h-11Z"/><path class="cls-1" d="M122.59,11.19a4.75,4.75,0,0,1,3,2.17,5.33,5.33,0,0,1,.62,2.48c.17,3-.13,6.21,0,9.25a4.45,4.45,0,0,1-4,4.25c-3.78.24-7.84-.19-11.65,0-2.41-.41-3.64-2.14-3.77-4.51-.11-2,.09-4.25.07-6.29,0-2.26-.45-4.62,1.45-6.28a5.81,5.81,0,0,1,2.21-1.06Zm-11.2,3.05a1.5,1.5,0,0,0-1.22,1.33c.19,3-.25,6.34,0,9.32a1.51,1.51,0,0,0,1,1.31c3.52.18,7.11.14,10.64,0,1.59-.54.9-2.14,1.15-3.39-.17-2.26.22-4.83,0-7a1.73,1.73,0,0,0-1.48-1.56Z"/><path class="cls-1" d="M34.38,11.19l0,3a18.17,18.17,0,0,1-2.76,0c-3.18,0-6.38.12-9.57.09-1.28.28-1.32,1.46-1.22,2.57a1.57,1.57,0,0,0,1.29,1.47c3.1.23,6.51-.26,9.57,0a4.46,4.46,0,0,1,3.78,3.19,11.82,11.82,0,0,1-.3,5.39c-.94,1.84-2.36,2.34-4.31,2.39-3.93.1-7.94-.1-11.85.08-.31,0-.63,0-.94,0V26.23H31a2.35,2.35,0,0,0,.93-.66,5.11,5.11,0,0,0,.06-3.3,1.85,1.85,0,0,0-1.4-.74c-2.95-.25-6.27.23-9.25,0a4.56,4.56,0,0,1-4-3.59V14.77A4.77,4.77,0,0,1,21,11.19Z"/><path class="cls-1" d="M145.14,11.19v3h-12a5,5,0,0,0-.55.14c-1.13.36-1.16,1.5-1.07,2.52A1.59,1.59,0,0,0,133,18.37c2.95.29,6.39-.27,9.38,0a4.41,4.41,0,0,1,3.76,2.85,11,11,0,0,1,0,5.25c-.45,1.31-2.11,2.86-3.55,2.86H128.79v-3.1h13a1.86,1.86,0,0,0,1.1-.84,6.83,6.83,0,0,0,.16-2.56,1.59,1.59,0,0,0-1.46-1.3c-2.91-.26-6.23.21-9.18,0-3.74-.25-4.46-3.41-4.17-6.59a4.58,4.58,0,0,1,3.59-3.76Z"/><path class="cls-1" d="M60.58,11.19V24.75a1.5,1.5,0,0,0,1.57,1.52c1.83.06,3.66,0,5.5,0a36.77,36.77,0,0,0,4.07,0,1.76,1.76,0,0,0,1.21-1.75V11.19h3.38v14a4.48,4.48,0,0,1-3.83,4.1c-3.7-.18-7.64.25-11.31,0a4.34,4.34,0,0,1-4-4V11.19Z"/><polygon class="cls-1" points="55.2 11.19 55.2 14.22 48.03 14.22 48 29.4 44.72 29.4 44.72 14.22 37.55 14.22 37.55 11.19 55.2 11.19"/><path class="cls-2" d="M144,48.72H133.55V36.37h10.59a3.16,3.16,0,0,1,2.36,2.4c-.14,2.39.24,5.09,0,7.44a3,3,0,0,1-1.41,2.11Zm-8.69-1.58h8.11a5.1,5.1,0,0,0,.61-.22,1.7,1.7,0,0,0,.73-1.33c.18-2-.12-4.25,0-6.28a1.67,1.67,0,0,0-.61-1.1,4.32,4.32,0,0,0-.45-.25h-8.38Z"/><path class="cls-2" d="M105.76,48.72V36.37H116a2.56,2.56,0,0,1,2,1.27,11.16,11.16,0,0,1,.19,3.39,1.49,1.49,0,0,1-.83,1.38l-.76.28c1.09.12,1.52.91,1.59,1.93.1,1.32-.08,2.77,0,4.1h-1.86l0-4.36a1.18,1.18,0,0,0-1-.74h-7.83v5.1Zm1.82-10.83-.1.1v3.94l.1.1H115a4.09,4.09,0,0,0,.51-.12,1.12,1.12,0,0,0,.84-.81,15.07,15.07,0,0,0,0-2.52,1.23,1.23,0,0,0-1-.69Z"/><path class="cls-2" d="M130,48.72h-8.34a3,3,0,0,1-2.41-2.45c-.25-2.32.17-5,0-7.38a3,3,0,0,1,2.38-2.51c2.67.13,5.56-.2,8.21,0a2.9,2.9,0,0,1,2.65,2.73c.18,2.31-.11,4.88,0,7.21a3,3,0,0,1-1.6,2.13ZM122,38a1.47,1.47,0,0,0-1,1.13c.17,2.17-.23,4.7,0,6.83a1.41,1.41,0,0,0,1.41,1.21c2.2-.14,4.59.17,6.76,0a1.48,1.48,0,0,0,1.49-1.28c.2-2.14-.16-4.59,0-6.76A1.45,1.45,0,0,0,129.52,38Z"/><path class="cls-2" d="M41.2,48.72H32.79a3,3,0,0,1-2.38-2.34c.08-2.38-.22-5,0-7.35A2.89,2.89,0,0,1,33,36.37c2.67-.19,5.58.14,8.27,0a3,3,0,0,1,2.39,2.51c.21,2.37-.15,5,0,7.45A3,3,0,0,1,41.2,48.72ZM33.26,38a1.37,1.37,0,0,0-1.09,1.19c-.24,2.09.18,4.62,0,6.76a1.49,1.49,0,0,0,1.41,1.21c2.2.19,4.67-.15,6.9,0a1.53,1.53,0,0,0,1.42-1.48c-.14-2,.17-4.28,0-6.29A1.48,1.48,0,0,0,40.62,38Z"/><path class="cls-2" d="M77.62,48.72a2.72,2.72,0,0,1-1.92-1.21,10.48,10.48,0,0,1-.22-3.38c.11-1.41,1.15-1.72,2.35-2-.42-.55-1.14-.87-1.4-1.54a6.25,6.25,0,0,1,0-3,1.63,1.63,0,0,1,1-1,16.51,16.51,0,0,1,4.36-.2,2,2,0,0,1,1.9,1.14,6.26,6.26,0,0,1,0,3.3c-.44,1-1.9,1.32-2.82,1.64l2.35,1.79V42.93h1.65l0,2.54,2.39,2v.15l-.85,1-1.77-1.32a1.71,1.71,0,0,1-1.2,1.25,6.24,6.24,0,0,1-.8.2A32.85,32.85,0,0,1,77.62,48.72Zm1.69-11c-.46,0-1.13.09-1.29.6a4.61,4.61,0,0,0,0,1.39c.08.5,1.19,1.39,1.61,1.7.63-.31,2.18-.57,2.51-1.22a5.55,5.55,0,0,0,.08-1.64,1.06,1.06,0,0,0-.8-.79A15.64,15.64,0,0,0,79.31,37.72Zm-.21,5.37c-.48.25-1.57.46-1.81,1a8.77,8.77,0,0,0-.09,2.13.93.93,0,0,0,.73.86A12,12,0,0,0,82.4,47c.32-.13,1-.56.64-.95Z"/><path class="cls-2" d="M45.07,48.72V47.14H54s.44-.15.51-.18c.84-.43.83-1.52.77-2.34a1.45,1.45,0,0,0-1.42-1.49c-2.12-.18-4.57.22-6.68,0-3.15-.33-3.43-5.44-.9-6.54a4.64,4.64,0,0,1,.61-.22H56.1V38H47.45a2.31,2.31,0,0,0-.7.48,2.66,2.66,0,0,0-.06,2.48,1.39,1.39,0,0,0,1,.56c2.15.19,4.78-.27,6.88,0A2.93,2.93,0,0,1,57,44.06c.15,1.72.12,3.62-1.68,4.4l-.81.26Z"/><rect class="cls-1" x="100.45" y="11.19" width="3.31" height="18.15"/><path class="cls-2" d="M92.79,48.72V36.37h9.48A3.18,3.18,0,0,1,104.36,38a8.06,8.06,0,0,1,.08,4.25A2.91,2.91,0,0,1,101.86,44H94.58v4.69Zm1.79-6.28h7a1.52,1.52,0,0,0,1.28-1.27,11,11,0,0,0,0-2.23c-.09-.37-.63-1-1-1H94.58Z"/><path class="cls-2" d="M17.48,48.72l.07-12.35H27c.8,0,1.83,1.06,2.1,1.77a8.2,8.2,0,0,1-.1,4.37A3,3,0,0,1,26.69,44H19.34v4.69Zm1.86-6.28h7a1.55,1.55,0,0,0,1.17-.89,7.16,7.16,0,0,0,0-2.69c-.1-.29-.65-.9-1-.9H19.34Z"/><polygon class="cls-2" points="63.07 48.72 63.14 37.96 58.03 37.96 58.03 36.37 70.03 36.37 70.03 37.86 69.93 37.96 64.86 37.96 64.86 48.72 63.07 48.72"/></svg>