<svg id="Calque_1" data-name="Calque 1" xmlns="http://www.w3.org/2000/svg" viewBox="0 0 164 60"><defs><style>.cls-1{fill:#789683;}</style></defs><path class="cls-1" d="M55.28,23.24c2.82.49,7.14-1.15,8,2.74a24,24,0,0,1,.11,5.23,3.52,3.52,0,0,1-.65,1.48l-1,.84a2.47,2.47,0,0,1,1.64,2.08c.19,1.29.17,5-.36,6.1a3.72,3.72,0,0,1-3.18,1.94H55.28Zm2.66,8.93h1.55a2.91,2.91,0,0,0,.75-.31,1.4,1.4,0,0,0,.53-1,24,24,0,0,0,0-3.79c0-.35-.46-1.11-.83-1.11h-2Zm0,8.74h2c.33,0,.78-.7.83-1a24,24,0,0,0,0-3.79c-.06-.56-.61-1.28-1.2-1.28H57.94Z"/><path class="cls-1" d="M31.49,23.24V40a2.36,2.36,0,0,0,.35.88,1.66,1.66,0,0,0,2.2,0,2.68,2.68,0,0,0,.28-.52v-17h2.74V40.25c0,3.18-3.32,4.31-6,3.4a3.64,3.64,0,0,1-2.27-3.22V23.24A8.79,8.79,0,0,0,31.49,23.24Z"/><path class="cls-1" d="M126.14,43.65h-2.61l-.66-4.41h-3.35l-.63,4.4h-2.66l3-20.32c1,0,2,0,3,0,.24,0,.74-.21.88,0Zm-6.28-7.15h2.66L121.23,27Z"/><path class="cls-1" d="M85.64,7.85h.24l.32-.6a1.52,1.52,0,0,1,.29,1.35c-.06.26-.29.32-.34.64a38.82,38.82,0,0,0,0,3.93c.09.2.41.24.41.58s-.31.35-.36.62c-.08.42.06,1,0,1.45l.67.67c1.34-.39,2,.85,2.92,1.59,4.16.74,8.39.68,12.6.92,2.16.13,4.31.32,6.46.45.18,0,.26-.07.22.18a.76.76,0,0,0-.39-.1c-14.18-.25-28.3-.28-42.47-.08-3.52,0-7,.06-10.57.09l1.11-.18,18.46-.9c.84-.59.87-1.75,1.67-2.41.42-.34,1-.53,1.38-.92l1.53.08c0-.3-.39-.27-.49-.62a1.43,1.43,0,0,1,.41-1.45c.12-.12.66-.39.68-.43s.15-1.36.26-1.73.61-1.28,1.22-1.26c.86,0,1.06,1.58,1.63,2l-.08-2.43c0-.3-.31-.45-.35-.71s0-.82,0-1.19l.49.61c.79-.37.33-1,.39-1.54,0-.26.2-.35.25-.55.14-.56,0-2.48.15-2.68s.57.1.65.24c.12.78.11,1.58.2,2.37,0,.22.19.45.21.65C85.45,7,85.25,7.39,85.64,7.85Zm-.9,4.7V9.94c0-.1-.25-.17-.35-.13v2.74Zm.18-2.74v2.74h.35V10.29c0-.08-.16-.32-.09-.49Z"/><path class="cls-1" d="M47.5,29.78H44.85V26.73a3.39,3.39,0,0,0-.36-.71,1.55,1.55,0,0,0-2.32.25,11,11,0,0,0-.15,3.1c.28,2,4.23,3.55,5.17,6a16.63,16.63,0,0,1,.2,5.85c-.59,2.61-3.51,3.21-5.78,2.46a3.6,3.6,0,0,1-2.25-2.88V37.11H42v3a2.16,2.16,0,0,0,.26.62,1.52,1.52,0,0,0,2.43-.22,13.54,13.54,0,0,0,.13-3.39c-.28-2.29-4.07-3.57-5.08-5.89a11.46,11.46,0,0,1,0-6.36c1.2-2.54,5.87-2.63,7.21-.23a5.11,5.11,0,0,1,.53,1.6Z"/><path class="cls-1" d="M134.55,39.94l2.21-16.61,2.83-.09-3.14,20.33c-.06.1-.17.08-.26.09-1.07.13-2.41-.11-3.5,0l-3.1-20.41a9.58,9.58,0,0,0,2.62,0l.16.26Z"/><path class="cls-1" d="M149.05,26v6.19h4.07v2.65h-4.07v6.09h4.69v2.74h-7.3l-.13-.13V23.37c0-.05.15-.14.23-.14l7.2.14v2.48l-.13.13Z"/><polygon class="cls-1" points="73.06 25.98 68.38 25.98 68.38 32.16 72.45 32.16 72.45 34.82 68.38 34.82 68.38 40.91 73.06 40.91 73.06 43.65 65.77 43.65 65.65 23.39 65.77 23.25 73.06 23.37 73.06 25.98"/><polygon class="cls-1" points="100.49 23.24 100.49 25.98 95.8 26.02 95.8 32.16 99.87 32.16 99.87 34.82 95.8 34.82 95.8 40.91 100.49 40.91 100.49 43.65 93.15 43.65 93.15 23.24 100.49 23.24"/><path class="cls-1" d="M10.26,43.65V23.33H15a3.52,3.52,0,0,1,2.65,2.21,24.6,24.6,0,0,1,.23,5.79,4,4,0,0,1-3.5,3.49H12.69l-.18,8.83ZM12.56,26c0,.14.07.27.07.4a43.72,43.72,0,0,0-.08,5.48c0,.13,0,.23.14.31H14c.59,0,1.13-.73,1.19-1.29a26.45,26.45,0,0,0,0-3.88c-.05-.31-.53-1-.84-1Z"/><path class="cls-1" d="M86.69,23.24V40.91h4.69v2.74H84V23.24A8.79,8.79,0,0,0,86.69,23.24Z"/><path class="cls-1" d="M110.48,23.24V40.91h4.69v2.74h-7.34V23.33h2.35S110.36,23.19,110.48,23.24Z"/><path class="cls-1" d="M22.55,23.24V40.87l.14.11s.06-.07.08-.07h4.47v2.74H19.9V23.33h2.43S22.46,23.21,22.55,23.24Z"/><path class="cls-1" d="M77.75,40.91h4.6v2.74H75.14L75,23.37l.17-.1a12,12,0,0,0,2,.06c.23,0,.43-.18.57,0Z"/><path class="cls-1" d="M143.84,23.24V43.65h-2.66V23.24A9.12,9.12,0,0,0,143.84,23.24Z"/><path class="cls-1" d="M104.47,50.9c.7-.7,2.39-2.15,3.27-1s-.95,2.78-1.88,3.32c-.57.33-1.57.94-1.92,0A5.88,5.88,0,0,0,107.05,51c.67-1.32-1-.47-1.51-.1a14.13,14.13,0,0,0-1.66,1.89c-.85-.33-.44-1.16-.25-1.85a33.38,33.38,0,0,1,2.09-5.25c.31-.41.84.22.68.59A24.62,24.62,0,0,0,104.47,50.9Z"/><path class="cls-1" d="M79.77,48.54c.22.22.11,1-.07,1.3.94-.3,1.85-.41,2.15.73a2.08,2.08,0,0,1-1,2,7.53,7.53,0,0,1-1.48.56,3,3,0,0,1-.9,0c.12.35-.18.56-.24.77-.22.81-.33,1.78-.59,2.59-.2.59-.72.3-.73-.2a22.27,22.27,0,0,1,1.29-4.8c.24-.71.61-1.47.83-2.18.09-.3,0-.82.37-.86A.63.63,0,0,1,79.77,48.54Zm-1,3.86c.75.25,3-1.12,2.17-1.94C80.26,49.83,78.6,51.64,78.73,52.4Z"/><path class="cls-1" d="M59.18,49.93c.62.11,1.59-.78,1.75.25l-.74.46c.25,1.21-1.69,3.32-2.85,2.85a1.78,1.78,0,0,1-.73-1.13c-.07-.92,1.11-3,2-3.27C59.29,48.92,59.71,49.47,59.18,49.93Zm-1.67,2.81a.57.57,0,0,0,.28.08,3,3,0,0,0,1.62-2,1.24,1.24,0,0,1-.81-.62c-.27-.06-1,1.54-1.08,1.84A2.12,2.12,0,0,0,57.51,52.74Z"/><path class="cls-1" d="M69.09,51.43c-.07.39-.25,1.26.09,1.55.67.58,1.55-.88,2-.57s0,.59-.25.79c-1.11,1-2.63.85-2.7-.84,0-.35.21-1,.16-1.22s-.55-.35-.6-.64c.19-.31.72,0,.88-.08s.69-.83.93-1a1.46,1.46,0,0,1,1.76-.25c1.06.64,0,2.34-1,2.46A3.06,3.06,0,0,1,69.09,51.43Zm1.48-1.75c-.27,0-1.27.9-1.09,1.14a1.09,1.09,0,0,0,.7.17C70.9,50.9,71.42,49.5,70.57,49.68Z"/><path class="cls-1" d="M89.78,52.58c-.23-.06-.18.18-.34.31a3.42,3.42,0,0,1-1.29.65c-.3,0-.75-.52-.8-.78a6.27,6.27,0,0,1,.34-2c.13-.36.85-2.21,1.29-1.43.33.59-.65,1.85-.77,2.57-.06.42-.11.84.43.69S90,51.19,90.2,50.57s0-1.36.69-1.26c.45.06.37.67.29,1-.2.81-.91,1.7-.65,2.55.07.22,1,1,.1,1.06C89.93,54,89.82,53.1,89.78,52.58Z"/><path class="cls-1" d="M110,51c0-.08-.58-.28-.51-.55,1,.24,1.27-.68,1.9-1.15a1.31,1.31,0,0,1,1.46-.22c1.76.78-.71,3.49-2,2.34-.2,0-.47,1.49.11,1.66.78.23,1.29-.73,1.75-.69s0,.67-.22.84c-1,.89-2.44.89-2.57-.7C109.93,52.23,110.08,51.1,110,51Zm2.21-1.33c-.22.06-1.19,1-1.09,1.13.62.59,1.78-.3,1.54-1C112.62,49.62,112.39,49.64,112.23,49.68Z"/><path class="cls-1" d="M124.17,49.07c1.89-.35,2,1.62.5,2.35-.75.37-.82,0-1.41,0s-.51,1.28-.13,1.46c.83.39,1.38-.58,1.73-.57.91.35-.6,1.31-1,1.39a1.39,1.39,0,0,1-1.71-1.35c0-.32.13-1.24,0-1.37s-.49-.19-.4-.48.58-.09.79-.18C123.05,50.13,123.41,49.21,124.17,49.07Zm.18.7a2,2,0,0,0-1,1C124.32,51.59,125.76,49.45,124.35,49.77Z"/><path class="cls-1" d="M45.29,51.52c.61-.38,1.82-1.63,2.56-1.37s.41,1.74.54,2.38c0,.21.38.42.31.58-.18.42-.72.23-.91-.07-.43-.71,0-1.41-.26-2.06a11.34,11.34,0,0,0-2.48,1.63c-.14.13-.32.53-.53.58s-.6-.39-.63-.58c-.07-.45.86-2,1-2.54.1-.28,0-.75.32-.84s.67.4.65.74C45.89,50.5,45.31,51,45.29,51.52Z"/><path class="cls-1" d="M39.45,51.35c-.32.87-.3,1.85.91,1.57.34-.08.65-.61,1-.59.55,0,.1.64-.16.87-1.07.94-2.48.55-2.6-.93a3.35,3.35,0,0,1,1.79-3.15c1.21-.49,2.34.43,1.52,1.6A1.88,1.88,0,0,1,39.45,51.35Zm1.48-1.67c-.52.07-.9.64-1.21,1,.47.45,1.84-.12,1.66-.78l-.16-.19A.41.41,0,0,0,40.93,49.68Z"/><path class="cls-1" d="M96,50.44c-.15-.26.38-.65.43-1s-.13-.13-.27-.09c-.61.21-1.92,1.18-1.94,1.87s2.23,1.28,1.58,2.28c-.35.54-2.64.71-2.64-.39A3.87,3.87,0,0,0,95,53c.14-.19-.73-.64-.87-.76-.82-.68-1-1.24-.31-2.15.49-.69,2.62-2.22,3.26-1.15a1.21,1.21,0,0,1-.51,1.61A.55.55,0,0,1,96,50.44Z"/><path class="cls-1" d="M53.14,49a1.09,1.09,0,0,1,1.18,1.53c-.18.44-.8.4-.8.09s.47-.87-.13-.85c-.77,0-1.43,1.48-1.59,2.14-.1.4-.32,1,.25,1,1,.09,1.7-1.12,2-1.16s.54.13.47.38c-.14.57-1.67,1.49-2.25,1.56C49.58,54.06,51.37,49.24,53.14,49Z"/><path class="cls-1" d="M121.07,46.05a.48.48,0,0,1,.55.54,25.49,25.49,0,0,0-1.85,4.53,16.44,16.44,0,0,0-.5,1.79c-.08.43.17,1-.41,1.07-.26,0-.41-.6-.42-.83,0-1.07,1.12-4,1.58-5.14A10.78,10.78,0,0,1,121.07,46.05Z"/><path class="cls-1" d="M86.13,45.7a.43.43,0,0,1,.51.16c.3.6-.74,2.56-1,3.25-.41,1.12-.76,2.29-1.06,3.45-.09.34.08.85-.41,1a1.35,1.35,0,0,1-.48-1,24,24,0,0,1,1-3.3c.33-1,.73-1.92,1.09-2.88C85.91,46.16,85.84,45.79,86.13,45.7Z"/><path class="cls-1" d="M117.62,45.61c.3-.08.58.45.54.72a34.2,34.2,0,0,0-2.06,5.8c0,.19-.12,1.4-.44,1.33s-.59-.6-.56-.9c.42-1.4.82-2.8,1.31-4.18a24.09,24.09,0,0,1,.91-2.45C117.38,45.82,117.51,45.64,117.62,45.61Z"/><path class="cls-1" d="M63.6,51l1-.87c.67-.41,1.61-1,2.06,0,0,.3-.53.18-.73.23a4.85,4.85,0,0,0-2.39,1.94c-.17.35-.29,1.3-.65,1.39s-.54-.35-.55-.57a10.83,10.83,0,0,1,.44-2,8.38,8.38,0,0,1,1-2.13c.2-.1.59,0,.58.23A12.45,12.45,0,0,1,63.6,51Z"/></svg>