<svg id="Calque_1" data-name="Calque 1" xmlns="http://www.w3.org/2000/svg" viewBox="0 0 164 60"><defs><style>.cls-1{fill:#789683;}</style></defs><polygon class="cls-1" points="73.15 31.73 76.83 38.06 80.65 31.73 84.03 31.73 84.03 45.85 80.65 45.85 80.8 37.62 77.93 42.33 76.09 42.4 73.08 37.47 73.15 45.85 69.77 45.85 69.77 31.73 73.15 31.73"/><path class="cls-1" d="M54,31.73l3.76,6.32,3.75-6.32h3.38V45.85H61.53V37.62l-2.79,4.64a2,2,0,0,1-2.07-.15l-2.79-4.49v8.23H50.64V31.73Z"/><polygon class="cls-1" points="107.35 31.73 113.6 39.97 113.46 31.73 116.84 31.73 116.84 45.85 113.83 45.85 107.43 37.47 107.57 45.85 104.19 45.85 104.19 31.73 107.35 31.73"/><path class="cls-1" d="M39,31.48c10.44-.37,10.1,15.46-.34,14.67C29.63,45.46,29.83,31.8,39,31.48Zm-.6,3.38c-2.82.47-3.73,4.43-2.08,6.57,1.92,2.49,6.37,1.52,6.81-1.69S41.64,34.31,38.39,34.86Z"/><path class="cls-1" d="M99.33,31.73v3a6.82,6.82,0,0,1-2.87.22c-1.2,0-2-.1-3.23,0-.16,0-1-.29-1,.1v2.13h5.37l.22.23V40l-.22.22H92.27v2.51h7.21l-.15,3.08H88.89V31.73Z"/><polygon class="cls-1" points="148.91 31.73 148.91 34.97 142 34.82 142 37.32 147.44 37.17 147.44 40.26 142 40.26 142 42.77 149.06 42.77 149.06 45.85 138.62 45.85 138.62 31.73 148.91 31.73"/><path class="cls-1" d="M65.79,17.61l-3.31,1a3.89,3.89,0,0,0-6.5.6c-1.85,3.93,2.43,7.93,6,5.1.27-.22.47-.65.6-.72.47-.3,2.68.71,3.38.73.23.17.09.16,0,.32a7.65,7.65,0,0,1-4.47,3.62,7.39,7.39,0,0,1-9.32-8.87C53.63,13,62.87,11.76,65.79,17.61Z"/><path class="cls-1" d="M134.79,41.88c-.37,1.67-2.34,3.29-3.89,3.83A7.43,7.43,0,0,1,121,37c1.42-6.37,10.59-7.53,13.61-1.83l-3.19,1.07a6,6,0,0,0-2.36-1.4c-6-1-6.49,8.53-.26,7.9A3.47,3.47,0,0,0,131.49,41Z"/><path class="cls-1" d="M28.72,35.41l-3.17.88c-.69-.37-.91-1-1.69-1.24a3.85,3.85,0,0,0-5.23,2.56c-1,4.77,4.13,7.06,7.07,3.44l3.24,1c-2.56,5.77-11.43,5.36-13.53-.59a7.34,7.34,0,0,1,9-9.63C26.2,32.29,28.21,33.62,28.72,35.41Z"/><path class="cls-1" d="M108.6,25.26l.52-.44.44.59a3,3,0,0,1,.73-.3c.47-.09-.18.37.3.29l.3-.44c.57.52.67,0,1,0s.62.36.92.41.61-.09.87-.07c.44,0,.38.46,1-.18l.46.39a5.43,5.43,0,0,1,2.32-.25c.21.07.19.4.32.42s.87-.37,1.31-.31.59.62,1.11.45l-.08.29c-.49-.45-.3.48-.66,0l-.08-.34-.65,0-.08.43c-.27-.22-.65,0-.86-.05s-.82-.79-.84-.11h-.28c-.19-.82-.77,0-.83,0s-.26-.11-.4-.09c-.78.12-1.9.42-2.45-.2l-.37.45c-.55-.06-1.74-.43-2.18-.16-.1.06-.1.3-.18.3-.31,0-.46-.25-.7-.26-.59,0-.72,1-1.21,0-.47.76-1.09.31-1.65.34-.21,0-.36.22-.57.24-1.8.15-3.53.25-5.29.45-.47,0-.92-.28-1.32-.27s-.64.26-1,.28-.86-.26-1.2-.27-.42.22-.68.22-.81-.35-.91-.35-.34.26-.58.32c-.44.12-.84-.13-1.16-.08-.09,0-1,1.07-1.35,0-.49.76-1.43.22-2.21.17-1.65-.11-3.39.26-5.14.26-.67,0-1.8-.09-2.21.45L83,27.17c-.08-.08-.88.71-1.26.74s-.49-.29-.7-.27-1,.37-1.19.36-.37-.22-.6-.24-.81.22-1.18.23l-.36-.31c-.1-.27.3-.19.3-.29s-.46-.55-.3-.95c.45-.15.76.45.81.44.22,0,.36-.27.6-.3.89-.12,2.45.07,3.35-.15.11,0,.09-.29.18-.29s1,.31,1.07.27c.23-.12.4-1.14,1,0l.3-.59c.59-.06.85.35,1.46.31.8,0,1.42-1.11,2.35-.3l.33-.46a9.34,9.34,0,0,0,1.32.26,16.65,16.65,0,0,0,1.89-.39c.05,0,.25.62.72.41.23-.11.17-.46.45-.43l.87.45c.51-.83,1,0,1.49-.17a.88.88,0,0,1,.51-.21c.85-.2.81-.4,1.4.53.32-.71.91-.62,1.58-.4.21.07.35.35.48.36s1.39-.54,1.54-.39l.08.44,1.18-.61.44.46c.58-.5.9-.11,1.45-.15a20.61,20.61,0,0,1,2.08-.39c.13,0,.3.31.36.25V25c.56-.17.45.5.8.45l.74-.59Z"/><rect class="cls-1" x="44.61" y="14.08" width="3.53" height="14.12"/><path class="cls-1" d="M91.79,14c6.66-1.05,7.5,8.4,1.84,9.19C86.94,24.09,86.21,14.84,91.79,14Zm.3,2c-2.6.54-2.44,4.83.26,5.12C96.39,21.57,96,15.21,92.09,16Z"/><path class="cls-1" d="M73.15,14.08V28.35a8.24,8.24,0,0,0-3.39,0V14.08Z"/><path class="cls-1" d="M101.54,14.08c-.32.67,0,1.2,0,1.83,0,1.79-.8,5.76,2.09,5.34.62-.09,1.43-.72,1.43-1.36V14.08h2.21v6a8.2,8.2,0,0,1-.56,1.5c-1.31,2.24-5.36,2.25-6.77.09a6.39,6.39,0,0,1-.62-1.45v-6.1Z"/><polygon class="cls-1" points="86.98 14.08 86.84 16.07 84.18 15.99 84.18 23.05 81.97 23.05 81.97 15.99 79.18 16.14 79.18 14.08 86.98 14.08"/><polygon class="cls-1" points="116.69 14.08 116.69 15.99 114.12 15.99 113.93 16.32 114.05 23.05 111.84 23.05 111.84 15.99 109.04 15.99 109.04 14.08 116.69 14.08"/></svg>