<svg id="Calque_1" data-name="Calque 1" xmlns="http://www.w3.org/2000/svg" viewBox="0 0 164 60"><defs><style>.cls-1{fill:#789683;}</style></defs><path class="cls-1" d="M50.71,50.48a3.32,3.32,0,0,1-4.23-.11l-6.87-5.14c-2-1.5-5.49-4.53-6.75-6.5C32.13,37.58,31.44,33,31.17,31a157.77,157.77,0,0,1-1.38-16.83,2.56,2.56,0,0,1,1.39-2.4,25.51,25.51,0,0,1,4-1.31,55.83,55.83,0,0,1,26.58-.09,26.21,26.21,0,0,1,4.4,1.41,2.52,2.52,0,0,1,1.37,2.31A154.45,154.45,0,0,1,66.31,30c-.25,2-.55,3.89-1,5.85-.52,2.5-.72,3-2.51,4.86a44.18,44.18,0,0,1-4.12,3.72C56.1,46.56,53.46,48.53,50.71,50.48Zm-.1-1.55c2.4-1.71,4.64-3.42,6.89-5.25a33.07,33.07,0,0,0,5.92-5.84l.61-2.1a122.1,122.1,0,0,0,2.25-21,2.44,2.44,0,0,0-1.78-2.32,31.21,31.21,0,0,0-6-1.4A72.94,72.94,0,0,0,47,10.39c-4.49.09-10.52.54-14.6,2.23a2.33,2.33,0,0,0-1.33,2.11,137.19,137.19,0,0,0,1.58,17.41c.24,1.61.55,3.1.94,4.66a4.73,4.73,0,0,0,1,2,33.05,33.05,0,0,0,3.51,3.49C41,44.66,43.85,46.89,46.88,49A3,3,0,0,0,50.61,48.93Z"/><path class="cls-1" d="M85.3,33.51v5.9H81.9V22.69h3.21l0,1.59a4.21,4.21,0,0,1,3.6-1.9,5.15,5.15,0,0,1,5,3.1,8.52,8.52,0,0,1-.28,7.39,5,5,0,0,1-4.55,2.51A4.45,4.45,0,0,1,85.3,33.51Zm2.85-.7a2.59,2.59,0,0,0,2.54-1.74,6.15,6.15,0,0,0-.06-4.41A2.66,2.66,0,0,0,88,25a2.58,2.58,0,0,0-2.4,1.65,6.16,6.16,0,0,0,0,4.51A2.62,2.62,0,0,0,88.15,32.81Z"/><path class="cls-1" d="M103.09,31.63a3.23,3.23,0,0,1,2.12-3.19,14.28,14.28,0,0,1,2.75-.59l2.45-.41a1.15,1.15,0,0,0,.93-1.35c-.17-1.44-1.57-1.55-3-1.33a1.81,1.81,0,0,0-1.42,1.78h-3.4c.17-3.19,3-4.18,6-4.16,2.51,0,5.3.68,5.3,3.43v7.08a6.6,6.6,0,0,0,.39,2.18h-3.42l-.26-1.16a6.3,6.3,0,0,1-5.69,1.29A3.46,3.46,0,0,1,103.09,31.63ZM107.58,33a4.22,4.22,0,0,0,2,0c1.74-.46,1.83-2.18,1.74-3.89a6.6,6.6,0,0,1-1.67.49l-2.09.41a1.63,1.63,0,0,0-1.08,1.61A1.38,1.38,0,0,0,107.58,33Z"/><path class="cls-1" d="M68.2,31.63c0-2.68,2-3.39,4.3-3.71l2.55-.35A2,2,0,0,0,76.18,27,1.43,1.43,0,0,0,75.75,25a3.58,3.58,0,0,0-2.37-.17A1.79,1.79,0,0,0,72,26.54H68.6c.14-3.11,2.88-4.16,5.8-4.16a8.84,8.84,0,0,1,3.51.57,3,3,0,0,1,1.93,2.67v7a7.61,7.61,0,0,0,.4,2.44H76.81l-.25-1.15a6.27,6.27,0,0,1-5.87,1.22A3.42,3.42,0,0,1,68.2,31.63Zm4,1.14a3.35,3.35,0,0,0,3,0A2.06,2.06,0,0,0,76.38,31l.08-2c-1.5.83-4.51.29-4.8,2.07A1.43,1.43,0,0,0,72.25,32.77Z"/><path class="cls-1" d="M128.06,25.08c-1.87.13-2.24,1.68-2.28,3.43v6.56h-3.39V22.67h3.24v1.8a4.9,4.9,0,0,1,6-1.73c1.78.65,2.27,2.43,2.33,4.28v8.05h-3.4V27.59a3.35,3.35,0,0,0-.63-1.93A2.15,2.15,0,0,0,128.06,25.08Z"/><path class="cls-1" d="M102.7,32.47v2.65a12.94,12.94,0,0,1-3.73,0,2.48,2.48,0,0,1-2.16-2.41V25H94.75V22.68h2.06V19h3.39v3.7h2.49V25h-2.5v6.51a1,1,0,0,0,.86,1.05Z"/><rect class="cls-1" x="116.86" y="22.68" width="3.4" height="12.39"/><polygon class="cls-1" points="112.89 44.47 112.88 37.92 110.45 44.45 109.52 44.47 107.07 37.94 107.06 44.47 106.08 44.47 106.08 36.66 107.51 36.67 109.97 43.19 112.44 36.66 113.87 36.66 113.87 44.46 112.89 44.47"/><path class="cls-1" d="M125.88,43.3c-.28,1.29-2.26,1.62-3.62,1.12a1.77,1.77,0,0,1-1.14-1.73h.93a1.09,1.09,0,0,0,.7,1c.89.31,2.13.15,2.19-.66a.83.83,0,0,0-.59-.78l-2-.52a1.49,1.49,0,0,1-1.14-1.21,1.47,1.47,0,0,1,.88-1.57,3.25,3.25,0,0,1,2.76.07,1.6,1.6,0,0,1,.79,1.45h-.92a1,1,0,0,0-.65-.84c-.86-.29-1.88,0-1.88.61a.74.74,0,0,0,.46.61l1.56.42a2.87,2.87,0,0,1,1.32.61A1.48,1.48,0,0,1,125.88,43.3Z"/><path class="cls-1" d="M120,38.82v5.65h-.88l0-.8a2.09,2.09,0,0,1-2,1A1.65,1.65,0,0,1,115.4,43l0-4.21h.93v3.85a1.09,1.09,0,0,0,1.07,1.12,1.56,1.56,0,0,0,1.71-1.57l0-3.41Z"/><path class="cls-1" d="M130.26,42.8a1.56,1.56,0,0,0,1.69,1,1.47,1.47,0,0,0,1.29-1.38h1a2.37,2.37,0,0,1-2.58,2.24,2.45,2.45,0,0,1-2.42-1.79c-.41-1.47,0-3.37,1.36-4a3.07,3.07,0,0,1,2.6.1,1.93,1.93,0,0,1,1,1.64h-1a1.36,1.36,0,0,0-1.48-1.15,1.54,1.54,0,0,0-1.46,1A3.25,3.25,0,0,0,130.26,42.8Z"/><rect class="cls-1" x="116.87" y="17.98" width="3.39" height="2.81"/><rect class="cls-1" x="126.97" y="38.81" width="0.94" height="5.67"/><rect class="cls-1" x="126.97" y="36.64" width="0.92" height="1.14" transform="translate(-0.12 0.43) rotate(-0.19)"/><path class="cls-1" d="M50.94,46.46a4,4,0,0,1-4.28.19A85,85,0,0,1,39,40.53a31.78,31.78,0,0,1-3.08-3.17,4.58,4.58,0,0,1-1-1.84,51.76,51.76,0,0,1-1.07-5.27,120.44,120.44,0,0,1-1.35-14.68,2.37,2.37,0,0,1,1.14-2.17A32.64,32.64,0,0,1,43,11.53a74.38,74.38,0,0,1,11.27,0c2.84.21,6.95.77,9.41,1.9a2.35,2.35,0,0,1,1.16,2.33A138.22,138.22,0,0,1,63.58,30c-.25,1.7-.87,5.68-1.49,6.63a16.15,16.15,0,0,1-2.52,2.9A64.49,64.49,0,0,1,50.94,46.46ZM48.77,35.91V32.85H46.59V21h2.18V18h-9.3v3h2.43V32.86H39.47v3.06Zm10.88,0V32.85H57.84L52,26,57,21h2.23V18H50.51v3l2,0-5.84,5.42,5.38,6.35-2.07,0v3Z"/></svg>