<svg id="Calque_1" data-name="Calque 1" xmlns="http://www.w3.org/2000/svg" viewBox="0 0 164 60"><defs><style>.cls-1{fill:#789683;}</style></defs><path class="cls-1" d="M45.75,53.73a3.86,3.86,0,0,1-4.91-.12l-8-6c-2.3-1.73-6.36-5.25-7.82-7.53-.84-1.33-1.65-6.7-2-8.95a181.72,181.72,0,0,1-1.59-19.51,2.93,2.93,0,0,1,1.61-2.77,28.52,28.52,0,0,1,4.66-1.52,64.64,64.64,0,0,1,30.79-.1,29.29,29.29,0,0,1,5.09,1.63,2.9,2.9,0,0,1,1.6,2.67A180.75,180.75,0,0,1,63.82,30c-.3,2.32-.64,4.5-1.11,6.78-.61,2.9-.84,3.49-2.91,5.63A52.84,52.84,0,0,1,55,46.73C52,49.18,48.93,51.47,45.75,53.73Zm-.12-1.79c2.77-2,5.38-4,8-6.09a37.92,37.92,0,0,0,6.86-6.77l.71-2.43a142.7,142.7,0,0,0,2.61-24.34,2.84,2.84,0,0,0-2.07-2.7A37,37,0,0,0,54.8,8a84,84,0,0,0-13.36-.71c-5.2.1-12.19.62-16.92,2.58A2.68,2.68,0,0,0,23,12.3,158.44,158.44,0,0,0,24.8,32.48c.29,1.87.65,3.59,1.1,5.39a5.3,5.3,0,0,0,1.2,2.27,37.88,37.88,0,0,0,4.07,4C34.44,47,37.8,49.57,41.31,52A3.47,3.47,0,0,0,45.63,51.94Z"/><path class="cls-1" d="M85.82,34.06V40.9H81.88V21.53H85.6l.05,1.84a4.87,4.87,0,0,1,4.18-2.2,6,6,0,0,1,5.81,3.59,9.92,9.92,0,0,1-.32,8.56,5.77,5.77,0,0,1-5.27,2.92A5.18,5.18,0,0,1,85.82,34.06Zm3.31-.8a3,3,0,0,0,2.94-2A7.14,7.14,0,0,0,92,26.13a3.08,3.08,0,0,0-3-2,3,3,0,0,0-2.78,1.91,7.13,7.13,0,0,0,0,5.22A3,3,0,0,0,89.13,33.26Z"/><path class="cls-1" d="M106.44,31.89a3.75,3.75,0,0,1,2.45-3.7,16.42,16.42,0,0,1,3.19-.68l2.84-.48A1.32,1.32,0,0,0,116,25.46c-.2-1.66-1.82-1.79-3.5-1.54A2.1,2.1,0,0,0,110.86,26h-4c.2-3.69,3.44-4.84,6.9-4.82,2.9,0,6.14.79,6.14,4v8.2a7.94,7.94,0,0,0,.45,2.53h-4l-.3-1.35a7.29,7.29,0,0,1-6.6,1.49A4,4,0,0,1,106.44,31.89Zm5.2,1.55a4.79,4.79,0,0,0,2.35,0c2-.54,2.12-2.53,2-4.5a7.19,7.19,0,0,1-1.93.56l-2.41.48a1.88,1.88,0,0,0-1.26,1.87A1.6,1.6,0,0,0,111.64,33.44Z"/><path class="cls-1" d="M66,31.89c0-3.1,2.26-3.93,5-4.3l3-.4a2.37,2.37,0,0,0,1.32-.63,1.66,1.66,0,0,0-.5-2.41A4.13,4.13,0,0,0,72,24a2.08,2.08,0,0,0-1.6,2H66.47c.17-3.61,3.34-4.82,6.73-4.81a10.31,10.31,0,0,1,4.06.65,3.44,3.44,0,0,1,2.24,3.1v8.12A8.61,8.61,0,0,0,80,35.88H76l-.29-1.34A7.26,7.26,0,0,1,68.89,36,4,4,0,0,1,66,31.89Zm4.69,1.32a3.93,3.93,0,0,0,3.43,0,2.38,2.38,0,0,0,1.36-2l.09-2.27c-1.74,1-5.23.34-5.56,2.4A1.67,1.67,0,0,0,70.7,33.21Z"/><path class="cls-1" d="M135.37,24.3c-2.17.15-2.59,1.94-2.64,4v7.6H128.8V21.51h3.75l0,2.08a5.68,5.68,0,0,1,6.95-2c2.06.75,2.62,2.81,2.69,5v9.32h-3.94V27.2a4,4,0,0,0-.72-2.23A2.49,2.49,0,0,0,135.37,24.3Z"/><path class="cls-1" d="M106,32.87v3.06a14.89,14.89,0,0,1-4.32,0,2.88,2.88,0,0,1-2.49-2.8l0-8.91H96.77V21.51h2.39V17.22h3.92v4.29H106v2.66h-2.9l0,7.55a1.15,1.15,0,0,0,1,1.21Z"/><rect class="cls-1" x="122.39" y="21.52" width="3.94" height="14.36"/><polygon class="cls-1" points="117.79 46.76 117.78 39.18 114.96 46.74 113.88 46.77 111.05 39.2 111.04 46.76 109.9 46.76 109.9 37.71 111.56 37.73 114.41 45.28 117.27 37.72 118.92 37.71 118.92 46.76 117.79 46.76"/><path class="cls-1" d="M132.85,45.41c-.33,1.49-2.63,1.88-4.2,1.3a2,2,0,0,1-1.32-2h1.07a1.26,1.26,0,0,0,.82,1.13c1,.36,2.46.17,2.53-.77a.93.93,0,0,0-.68-.9l-2.29-.6a1.73,1.73,0,0,1-1.32-1.41,1.7,1.7,0,0,1,1-1.81,3.71,3.71,0,0,1,3.19.07,1.88,1.88,0,0,1,.92,1.69h-1.07a1.21,1.21,0,0,0-.75-1c-1-.34-2.17,0-2.18.71a.88.88,0,0,0,.53.71l1.81.48a3.41,3.41,0,0,1,1.54.71A1.72,1.72,0,0,1,132.85,45.41Z"/><path class="cls-1" d="M126.08,40.22v6.55h-1l0-.92A2.42,2.42,0,0,1,122.65,47a1.91,1.91,0,0,1-2-1.85l0-4.88h1.09V44.7A1.26,1.26,0,0,0,123,46a1.82,1.82,0,0,0,2-1.82l0-4Z"/><path class="cls-1" d="M137.92,44.83a1.78,1.78,0,0,0,2,1.15,1.73,1.73,0,0,0,1.51-1.61h1.12a2.77,2.77,0,0,1-3,2.6,2.85,2.85,0,0,1-2.8-2.08c-.48-1.7-.05-3.9,1.56-4.59a3.61,3.61,0,0,1,3,.11,2.26,2.26,0,0,1,1.16,1.9h-1.12A1.57,1.57,0,0,0,139.62,41a1.81,1.81,0,0,0-1.69,1.16A3.78,3.78,0,0,0,137.92,44.83Z"/><rect class="cls-1" x="122.41" y="16.07" width="3.93" height="3.25"/><rect class="cls-1" x="134.11" y="40.2" width="1.08" height="6.57"/><rect class="cls-1" x="134.11" y="37.7" width="1.07" height="1.32" transform="translate(-0.13 0.45) rotate(-0.19)"/><path class="cls-1" d="M46,49.08a4.7,4.7,0,0,1-5,.22,101,101,0,0,1-8.88-7.09,35.38,35.38,0,0,1-3.57-3.68,5.43,5.43,0,0,1-1.12-2.14,61.56,61.56,0,0,1-1.24-6.1,140.55,140.55,0,0,1-1.56-17A2.75,2.75,0,0,1,26,10.76,38.24,38.24,0,0,1,36.81,8.6a87.59,87.59,0,0,1,13.06,0c3.29.24,8.05.89,10.9,2.2a2.69,2.69,0,0,1,1.34,2.69A159.69,159.69,0,0,1,60.66,30c-.29,2-1,6.57-1.73,7.68A19.4,19.4,0,0,1,56,41,75.19,75.19,0,0,1,46,49.08ZM43.49,36.85V33.31H41V19.61H43.5V16.08H32.72V19.6l2.82,0v13.7H32.72v3.54Zm12.62,0V33.31H54l-6.81-8,5.88-5.71h2.58V16.08H45.51v3.51l2.38.05L41.1,25.92l6.25,7.36-2.41,0v3.53Z"/></svg>