<svg id="Calque_1" data-name="Calque 1" xmlns="http://www.w3.org/2000/svg" viewBox="0 0 164 60"><defs><style>.cls-1{fill:#789683;}</style></defs><path class="cls-1" d="M160,12.4V50.07H10.71a18.65,18.65,0,0,0,10.2-5.61,9.44,9.44,0,0,0,2.17-5.27l3-18.07c.7-4.24,4-8.72,8.3-8.72ZM48.36,42.7a6,6,0,0,0,3.28-5.83c-.34-6.87-10.93-5.18-10.37-8.8a2.61,2.61,0,0,1,1.81-1.56c2.52-.44,4.84.31,5.65,2.78l4.74-1.48c-1.61-5.77-9.76-7.27-14.72-4.33a6.28,6.28,0,0,0-3,5.64,5.47,5.47,0,0,0,3.51,5.08l5.86,2a2.18,2.18,0,0,1,1.17,1.39,2.5,2.5,0,0,1-.84,1.49c-2.39,1.42-6.28.65-7-2.28L33,38.36C34.66,44.19,43.07,45.48,48.36,42.7Zm7.7.53c3.58,1.71,7.52.79,10.58-1.22l-.16,1.5,5.32-.08,3-13.73c.83-3.77-1.85-6.77-5.36-7.42-5.46-1-11,1.16-13.39,6.28l5,1.37a5.56,5.56,0,0,1,6-3.13,3.46,3.46,0,0,1,2.2,1.25,3.6,3.6,0,0,1,0,2.68c-5.76,0-12-.63-15,4.05C52.46,37.6,52.82,41.68,56.06,43.23Zm26.46-6c-1.63-2.32-.94-5.27.46-7.3a6.52,6.52,0,0,1,6.5-2.66,3.71,3.71,0,0,1,3.18,3.56l5.72-1.08a8.62,8.62,0,0,0-7.7-7.57A13.06,13.06,0,0,0,76.14,34.52a8.54,8.54,0,0,0,5,8.52,12,12,0,0,0,16.19-6.81L92,35.37a5.76,5.76,0,0,1-4.37,3.51C85.86,39.16,83.75,39,82.52,37.21Zm25.88,2.07a4.22,4.22,0,0,1-4-4.7h16.08c1.16-6.27-1.67-11.91-7.84-12.49A12.48,12.48,0,0,0,99.51,37a8.77,8.77,0,0,0,8.37,7.1c4.92.35,9.5-1.93,11.58-6.44l-5.06-1.27C113.16,38.64,111,39.5,108.4,39.28Zm33.36,4.17,2.69-11.37a6.42,6.42,0,0,1,5.29-4.92,4,4,0,0,1,2.92.85,3.94,3.94,0,0,1,.81,2.68l-2.92,12.78,5.54,0,3.14-14.11a6,6,0,0,0-4.87-7.08,9.49,9.49,0,0,0-9.7,3.51c-2-4.4-8.51-4.88-12.44-1.7l-.15-1.43-5.38,0-4.77,20.78h5.57l2.72-11.51a6.25,6.25,0,0,1,5.12-4.78,3.81,3.81,0,0,1,3.06,1,4,4,0,0,1,.69,2.74l-2.89,12.59Z"/><path class="cls-1" d="M33.08,9.93A11.91,11.91,0,0,0,24,19.38L20.94,36.63C15,34.15,6.23,38.92,4,44.79V9.93Z"/><path class="cls-1" d="M7.89,50.07H4v-3A6.1,6.1,0,0,0,7.89,50.07Z"/><path class="cls-1" d="M68.45,35a6.61,6.61,0,0,1-9,4c-.65-.29-.89-1.74-.64-2.27s1.36-1.66,2.06-1.67Z"/><path class="cls-1" d="M115.74,30.61l-10.49.05a6.43,6.43,0,0,1,8-3.64A4.54,4.54,0,0,1,115.74,30.61Z"/></svg>