<svg id="Calque_1" data-name="Calque 1" xmlns="http://www.w3.org/2000/svg" viewBox="0 0 164 60"><defs><style>.cls-1{fill:#789683;}</style></defs><path class="cls-1" d="M61.85,50.18H51.11a23.44,23.44,0,0,0,6.35-4.42l-2.3-2.31L49.73,38a11.24,11.24,0,1,1,0-16l4.53-4.5,3.24-3.21a22.64,22.64,0,0,0-6.4-4.45H61.84Z"/><path class="cls-1" d="M148.35,9.83V50.18H137.6A22.55,22.55,0,0,0,144,45.74L136.24,38a11.24,11.24,0,1,1,0-16L138,20.24l6-6a22.56,22.56,0,0,0-6.39-4.44Z"/><path class="cls-1" d="M32.6,50.18h-17V9.83h16.9a22.2,22.2,0,0,0,0,40.35Z"/><path class="cls-1" d="M119.09,50.18h-16.9l0-40.35h16.85a22.18,22.18,0,0,0-7,35.28A23.38,23.38,0,0,0,119.09,50.18Z"/><polygon class="cls-1" points="91.64 50.18 73.33 50.18 73.34 28.25 91.5 49.96 91.64 50.18"/><polygon class="cls-1" points="90.7 9.83 90.71 31.83 72.28 9.82 90.7 9.83"/></svg>