<svg id="Calque_1" data-name="Calque 1" xmlns="http://www.w3.org/2000/svg" viewBox="0 0 128 128"><defs><style>.cls-1{fill:#152c24;}.cls-2{fill:#142b24;}.cls-3{fill:#d3d4cc;}.cls-4{fill:#335044;}.cls-5{fill:#142b23;}.cls-6{fill:#1a3028;}.cls-7{fill:#192f27;}.cls-8{fill:#bbbeb7;}</style></defs><path class="cls-1" d="M94.32,23.82c-1.68.08-3.47,0-5.17,0-16.81.09-33.63-.15-50.44,0-.38,0-.75,0-1.13,0h-.22a14.5,14.5,0,0,0-2.47.11,1.76,1.76,0,0,0-.23,0c-.18-.19-.62-.12-.9-.11-5.54.12-6.06-7.93-.06-8.32l61,0A4.16,4.16,0,0,1,94.32,23.82Z"/><path class="cls-2" d="M38.71,104.15h2.13q23.19-.08,46.4,0h2c1.81,0,5.61-.32,7.08.45a4.17,4.17,0,0,1-1.2,7.74c-20.4-.2-40.87.26-61.22.14-4.91,0-6.16-6.18-2.19-8C33.11,103.87,37,104.16,38.71,104.15Z"/><path class="cls-3" d="M89.15,23.82l.12,3.2c.29,8.27.78,14.07-5.06,20.67C80,52.46,73.83,55.43,69.77,60.11c-4.32,5-.86,8.07,3.15,11.46C79,76.7,86,80.42,88.45,88.63c1.5,5,.9,10.35.82,15.52h-2c-.11-5.57-4.61-9.59-8.77-12.62-4.47-3.26-10-5.89-13.75-10-.29-.31-.49-1-.9-.67S63,82,62.47,82.47c-3.08,3-7.12,5-10.68,7.41-5,3.35-10.64,7.7-10.95,14.27H38.71c0-.39,0-.78,0-1.17-.33-4.88-.54-10.6,1.15-15.26s5.16-8.2,9-11.32l.11-.11a4.29,4.29,0,0,0,.84-.57c.44-.35.86-.77,1.3-1.12.06,0,.19-.11.33-.22l1.13-.9.45-.34c.57-.45,1.12-.87,1.68-1.34.1-.09.24-.14.34-.23a1.67,1.67,0,0,0,.56-.56c.28-.08.22-.14.34-.23a11.33,11.33,0,0,0,1.68-1.57l.23-.22c1.37-1.47,2.71-3,2.47-5.17a3.93,3.93,0,0,0-.23-.79c-1.35-3.62-6.57-6.93-9.54-9.27C47,51,44,48.58,41.52,44.83a6.61,6.61,0,0,0-.9-1.35s-.07-.09-.12-.11c.09-.27-.17-.44-.22-.56A31.24,31.24,0,0,1,39,39.21c0-.23-.07-.45-.11-.67s0-.24,0-.34c-.07-.41-.17-.82-.22-1.23,0-.11,0-.23,0-.34s-.21-.63-.23-.79,0-.22,0-.34c0-.5,0-1.06,0-1.57,0-.08-.07-.19-.07-.3a.39.39,0,0,1,.07-.26V28.76c-.12-.2,0-.38,0-.56a.5.5,0,0,0,.12-.27c0-1.37,0-2.74.11-4.11C55.52,23.67,72.34,23.91,89.15,23.82Zm-4,17.75A42.31,42.31,0,0,1,64.85,43.8a80.18,80.18,0,0,1-9.22-1.9c-4.54-1.11-9-2.81-13.78-2.13,2.95,7.18,10.09,11,15.67,15.85a19.11,19.11,0,0,1,4.87,5.69c.27.54,1.11,3.26,1.26,3.36s.56,0,.78,0c1.33-6.83,8-10.54,13-14.6C80.34,47.71,83.43,45,85.11,41.57Zm-21.26,26c-1.73.34-1.67,3.79.52,3.45C66.25,70.71,65.76,67.18,63.85,67.55Zm-.72,7.09c-1.49,1.5.54,4.35,2,2.6S64.47,73.28,63.13,74.64Z"/><path class="cls-4" d="M40.84,104.15c.31-6.57,5.95-10.92,10.95-14.27,3.56-2.37,7.6-4.42,10.68-7.41.48-.46.94-1.2,1.35-1.57s.61.36.9.67c3.75,4.07,9.28,6.7,13.75,10,4.16,3,8.66,7,8.77,12.62Q64.05,104.07,40.84,104.15Z"/><path class="cls-5" d="M85.11,41.57c-1.68,3.45-4.77,6.14-7.7,8.54-5,4.06-11.65,7.77-13,14.6-.22,0-.62.07-.78,0s-1-2.82-1.26-3.36a19.11,19.11,0,0,0-4.87-5.69C51.94,50.78,44.8,47,41.85,39.77c4.78-.68,9.24,1,13.78,2.13a80.18,80.18,0,0,0,9.22,1.9A42.31,42.31,0,0,0,85.11,41.57Z"/><path class="cls-6" d="M63.85,67.55c1.91-.37,2.4,3.16.52,3.45C62.18,71.34,62.12,67.89,63.85,67.55Z"/><path class="cls-7" d="M63.13,74.64c1.34-1.36,3.36.91,2,2.6S61.64,76.14,63.13,74.64Z"/><path class="cls-8" d="M94.78,24.31c-.16-.11-.49-.26-.46-.49-1.68.08-3.47,0-5.17,0l.12,3.2c.29,8.27.78,14.07-5.06,20.67C80,52.46,73.83,55.43,69.77,60.11c-4.32,5-.86,8.07,3.15,11.46C79,76.7,86,80.42,88.45,88.63c1.5,5,.9,10.35.82,15.52,1.81,0,5.61-.32,7.08.45a49.82,49.82,0,0,0,18.34-25.42C121.16,58.06,112.82,36.42,94.78,24.31Zm5.12,72.5A41.35,41.35,0,0,1,93.55,102c-.18.11-.35.28-.57.26-.11-3.86.28-7.77-.37-11.59-1.22-7.1-5-11.76-10.37-16.27-2.48-2.1-8.8-6.28-10.09-8.89-1.17-2.34,2-4.71,3.58-6C83.35,53.12,91,49,92.73,38.13c.57-3.57.27-7,.25-10.6A44.61,44.61,0,0,1,99.9,96.81Z"/><path class="cls-8" d="M60.05,63c-1.35-3.62-6.57-6.93-9.54-9.27C47,51,44,48.58,41.52,44.83a6.61,6.61,0,0,0-.9-1.35s-.07-.09-.12-.11c.09-.27-.17-.44-.22-.56A31.24,31.24,0,0,1,39,39.21c0-.23-.07-.45-.11-.67s0-.24,0-.34c-.07-.41-.17-.82-.22-1.23,0-.11,0-.23,0-.34s-.21-.63-.23-.79,0-.22,0-.34c0-.5,0-1.06,0-1.57,0-.08-.07-.19-.07-.3a.39.39,0,0,1,.07-.26V28.76c-.12-.2,0-.38,0-.56a.5.5,0,0,0,.12-.27c0-1.37,0-2.74.11-4.11-.38,0-.75,0-1.13,0h-.22a14.5,14.5,0,0,0-2.47.11,1.76,1.76,0,0,0-.23,0c-.18-.19-.62-.12-.9-.11.07.36,0,.27-.22.4a52.88,52.88,0,0,0-10,8.59c-.11.12-.16.26-.23.34-.47.55-.88.93-1.34,1.57-.07.09-.28.12-.34.34,0,.06,0,.17,0,.22a2.26,2.26,0,0,0-.45.31c-2.53,2.78-5.45,8.6-6.83,12.13a48.13,48.13,0,0,0,17.39,56.77c1.37-.62,5.27-.33,7-.34,0-.39,0-.78,0-1.17-.33-4.88-.54-10.6,1.15-15.26s5.16-8.2,9-11.32l.11-.11a4.29,4.29,0,0,0,.84-.57c.44-.35.86-.77,1.3-1.12.06,0,.19-.11.33-.22l1.13-.9.45-.34c.57-.45,1.12-.87,1.68-1.34.1-.09.24-.14.34-.23a1.67,1.67,0,0,0,.56-.56c.28-.08.22-.14.34-.23a11.33,11.33,0,0,0,1.68-1.57l.23-.22c1.37-1.47,2.71-3,2.47-5.17A3.93,3.93,0,0,0,60.05,63ZM35.93,88.18c-1.28,4.6-1,9.33-.93,14.06a13.21,13.21,0,0,1-2.24-1.41C15.84,88.56,10.12,65.73,18.69,46.66a17.66,17.66,0,0,0,1.25-2.73s.08-.09.12-.11c.28-.2,3.18-5,3.82-5.84A45.85,45.85,0,0,1,34.1,28.2c.08-.05.28-.1.42-.19s.49-.66.48-.15c-.06,1.2-.1,2.4-.11,3.6q0,.67,0,1.35C35,43.5,38.62,48.7,46.63,55.16c2.16,1.74,8.28,5.79,9.24,8.07a2.27,2.27,0,0,1,0,2.09c-.85,2-5.34,5.2-7.17,6.7C42.87,76.78,38.07,80.5,35.93,88.18Z"/><path class="cls-8" d="M102.38,65.82h6.37a1.08,1.08,0,0,0,.1-2.1h-6.58C101.14,64.18,101.34,65.4,102.38,65.82Z"/><path class="cls-8" d="M98.26,48.49l5.33-3.21a1.09,1.09,0,0,0-1.07-1.86l-5.35,3.25A1.1,1.1,0,0,0,98.26,48.49Z"/><path class="cls-8" d="M98.53,81.47a1.3,1.3,0,0,0-.87-.1,1.07,1.07,0,0,0-.41,1.82c1.26,1.15,3.83,2.11,5.27,3.16a1.06,1.06,0,0,0,1-1.86A48.4,48.4,0,0,0,98.53,81.47Z"/><path class="cls-8" d="M25.61,65.83a1.08,1.08,0,0,0,.11-2.12c-2,.16-4.41-.23-6.4,0a1.5,1.5,0,0,0-.69.27,1.09,1.09,0,0,0,.59,1.86C21.18,65.64,23.73,66.12,25.61,65.83Z"/><path class="cls-8" d="M25.79,43.53a1.1,1.1,0,0,0-.82-.14,1.09,1.09,0,0,0-.48,1.89l5.34,3.21a1.07,1.07,0,0,0,1-1.86A45.26,45.26,0,0,0,25.79,43.53Z"/><path class="cls-8" d="M29.69,81.37l-5.26,3.17a1.09,1.09,0,0,0,1.14,1.81l5.16-3.15A1.08,1.08,0,0,0,29.69,81.37Z"/></svg>